<svg xmlns="http://www.w3.org/2000/svg" width="414.70306396484375" height="255.24176025390625" viewBox="-107.1470718383789 -47.547576904296875 414.70306396484375 255.24176025390625"><title>Neo4j Graph Visualization</title><desc>Created using Neo4j (http://www.neo4j.com/)</desc><g class="layer relationships"><g class="relationship" transform="translate(-29.044393430403233 86.41801305331376) rotate(314.0592247493721)"><path class="outline" fill="#A5ABB6" stroke="none" d="M 21.40063509461097,12.933012701892217 L 21.90063509461097,12.06698729810778 A 55.04137041013782 55.04137041013782 0 0 0 38.150473870828876,18.27480729770538 L 37.94570341644398,19.253617320647017 A 56.04137041013782 56.04137041013782 0 0 1 21.40063509461097,12.933012701892217 Z M 57.34729529780079,19.877813038656676 L 57.205864513005295,18.88786489197821 A 55.04137041013782 55.04137041013782 0 0 0 73.82112673485533,13.737393971796173 L 72.491228537189,11.048273151928855 L 80.31739168082345,11.082484980552653 L 75.59432433174375,17.322888398285933 L 74.26442613407742,14.633767578418613 A 56.04137041013782 56.04137041013782 0 0 1 57.34729529780079,19.877813038656676"/><text text-anchor="middle" pointer-events="none" font-size="8px" fill="#000000" x="47.635345335792984" y="22.912410556478726" font-family="sans-serif">trek</text></g><g class="relationship" transform="translate(42.39193583497205 12.596388193602984) rotate(345.1287391973351)"><path class="outline" fill="#A5ABB6" stroke="none" d="M 24.018736134675446,6.953439040707552 L 24.277555179777966,5.987513214418485 A 134.2748578103026 134.2748578103026 0 0 0 47.513727172863376,10.068013438196175 L 47.42795744147462,11.064328425124245 A 135.2748578103026 135.2748578103026 0 0 1 24.018736134675446,6.953439040707552 Z M 66.81705001418675,11.338528349292403 L 66.7594886574002,10.340186378720745 A 134.2748578103026 134.2748578103026 0 0 0 90.1017577893723,6.918396972711639 L 89.40755533099953,3.9998214731246895 L 97.0274676981373,5.785020486439684 L 91.02736106720265,10.809830972160906 L 90.33315860882988,7.891255472573956 A 135.2748578103026 135.2748578103026 0 0 1 66.81705001418675,11.338528349292403"/><text text-anchor="middle" pointer-events="none" font-size="8px" fill="#000000" x="57.12465451590966" y="14.049342899606188" font-family="sans-serif">trek</text></g><g class="relationship" transform="translate(159.67627559353235 -18.54757601771094) rotate(390.6345836088419)"><path class="outline" fill="#A5ABB6" stroke="none" d="M 24.018736134675446,-6.953439040707552 L 24.277555179777966,-5.987513214418485 A 126.91794004354176 126.91794004354176 0 0 1 45.663756721564155,-9.79345659400424 L 45.57344184170769,-10.789369854522704 A 127.91794004354176 127.91794004354176 0 0 0 24.018736134675446,-6.953439040707552 Z M 64.96457838139332,-11.071764945846411 L 64.9033028234028,-10.073644058381888 A 126.91794004354176 126.91794004354176 0 0 1 86.39126412447618,-6.8920814677538855 L 85.699519626743,-3.972922419353837 L 93.31792598703181,-5.764537481109814 L 87.31359012145374,-10.784293532287283 L 86.62184562372056,-7.865134483887235 A 127.91794004354176 127.91794004354176 0 0 0 64.96457838139332,-11.071764945846411"/><text text-anchor="middle" pointer-events="none" font-size="8px" fill="#000000" x="55.27093156352542" y="-7.798627650717322" font-family="sans-serif">trek</text></g><g class="relationship" transform="translate(195.90281992604076 90.0127904442456) rotate(323.2066339056367)"><path class="outline" fill="#A5ABB6" stroke="none" d="M 21.40063509461097,12.933012701892217 L 21.90063509461097,12.06698729810778 A 32.450004387337344 32.450004387337344 0 0 0 27.502569149945472,14.626377025539593 L 27.175201917216235,15.57127421303419 A 33.450004387337344 33.450004387337344 0 0 1 21.40063509461097,12.933012701892217 Z M 46.50855312933447,16.347008698173177 L 46.257942823159794,15.37892064719897 A 32.450004387337344 32.450004387337344 0 0 0 52.046924821060145,13.276581862610369 L 50.75990303518209,10.566678742077226 L 58.58453573328382,10.725181548983771 L 53.762953868897554,16.88978602332123 L 52.4759320830195,14.179882902788085 A 33.450004387337344 33.450004387337344 0 0 1 46.50855312933447,16.347008698173177"/><text text-anchor="middle" pointer-events="none" font-size="8px" fill="#000000" x="36.804608992939556" y="19.88797161585154" font-family="sans-serif">trek</text></g><g class="relationship" transform="translate(195.90281992604076 90.0127904442456) rotate(407.01506010357673)"><path class="outline" fill="#A5ABB6" stroke="none" d="M 25 0.5 L 47.44543252537806 0.5 L 47.44543252537806 -0.5 L 25 -0.5 Z M 66.78137002537807 0.5 L 89.22680255075612 0.5 L 89.22680255075612 3.5 L 96.22680255075612 0 L 89.22680255075612 -3.5 L 89.22680255075612 -0.5 L 66.78137002537807 -0.5 Z"/><text text-anchor="middle" pointer-events="none" font-size="8px" fill="#000000" x="57.11340127537806" y="3" font-family="sans-serif">trek</text></g><g class="relationship" transform="translate(278.5559935535179 178.69418954228715) rotate(189.88304845890622)"><path class="outline" fill="#A5ABB6" stroke="none" d="M 25 0.5 L 36.79039214966548 0.5 L 36.79039214966548 -0.5 L 25 -0.5 Z M 56.12632964966548 0.5 L 67.91672179933096 0.5 L 67.91672179933096 3.5 L 74.91672179933096 0 L 67.91672179933096 -3.5 L 67.91672179933096 -0.5 L 56.12632964966548 -0.5 Z"/><text text-anchor="middle" pointer-events="none" font-size="8px" fill="#000000" x="46.45836089966548" y="3" transform="rotate(180 46.45836089966548 0)" font-family="sans-serif">trek</text></g><g class="relationship" transform="translate(-29.044393430403233 86.41801305331376) rotate(237.7891365076489)"><path class="outline" fill="#A5ABB6" stroke="none" d="M 24.018736134675446,6.953439040707552 L 24.277555179777966,5.987513214418485 A 70.71080491549209 70.71080491549209 0 0 0 30.382409917954533,7.337140508589002 L 30.209926401707506,8.322152912888086 A 71.71080491549209 71.71080491549209 0 0 1 24.018736134675446,6.953439040707552 Z M 52.284156831321596,8.737135459562566 L 52.14881741271763,7.7463361651684295 A 70.71080491549209 70.71080491549209 0 0 0 58.30008501649305,6.627116761231521 L 57.633091046525706,3.7022032507107054 L 65.23604886936951,5.55828308306119 L 59.18941030978284,10.527001441925943 L 58.5224163398155,7.602087931405126 A 71.71080491549209 71.71080491549209 0 0 1 52.284156831321596,8.737135459562566"/><text text-anchor="middle" pointer-events="none" font-size="8px" fill="#000000" x="41.24037344586974" y="11.884345212899689" transform="rotate(180 41.24037344586974 8.884345212899689)" font-family="sans-serif">road</text></g><g class="relationship" transform="translate(-76.8099877232656 10.59942095158333) rotate(445.3530312619004)"><path class="outline" fill="#A5ABB6" stroke="none" d="M 21.40063509461097,-12.933012701892217 L 21.90063509461097,-12.06698729810778 A 84.38056516493721 84.38056516493721 0 0 1 51.051578822149075,-22.35826666734198 L 50.89704870221633,-23.346254745222268 A 85.38056516493721 85.38056516493721 0 0 0 21.40063509461097,-12.933012701892217 Z M 72.96926865216273,-23.90897438885044 L 72.86528303250874,-22.9143955880985 A 84.38056516493721 84.38056516493721 0 0 1 102.50275767069931,-14.121896038349888 L 101.137093435628,-11.450761223884868 L 108.96301627696292,-11.380535292260987 L 104.32364331746106,-17.68340912430325 L 102.95797908238976,-15.01227430983823 A 85.38056516493721 85.38056516493721 0 0 0 72.96926865216273,-23.90897438885044"/><text text-anchor="middle" pointer-events="none" font-size="8px" fill="#000000" x="61.927635210559274" y="-20.844268049333692" font-family="sans-serif">road</text></g><g class="relationship" transform="translate(-76.8099877232656 10.59942095158333) rotate(445.3530312619004)"><path class="outline" fill="#A5ABB6" stroke="none" d="M 25 0.5 L 52.44326778208573 0.5 L 52.44326778208573 -0.5 L 25 -0.5 Z M 71.77920528208573 0.5 L 99.22247306417145 0.5 L 99.22247306417145 3.5 L 106.22247306417145 0 L 99.22247306417145 -3.5 L 99.22247306417145 -0.5 L 71.77920528208573 -0.5 Z"/><text text-anchor="middle" pointer-events="none" font-size="8px" fill="#000000" x="62.11123653208573" y="3" font-family="sans-serif">trek</text></g><g class="relationship" transform="translate(-29.044393430403233 86.41801305331376) rotate(237.7891365076489)"><path class="outline" fill="#A5ABB6" stroke="none" d="M 24.018736134675446,-6.953439040707552 L 24.277555179777966,-5.987513214418485 A 70.71080491549209 70.71080491549209 0 0 1 31.69307119889323,-7.553978491251186 L 31.539123199000528,-8.542057442210591 A 71.71080491549209 71.71080491549209 0 0 0 24.018736134675446,-6.953439040707552 Z M 50.947633995434444,-8.906926027919397 L 50.83093225406004,-7.913759021036782 A 70.71080491549209 70.71080491549209 0 0 1 58.30008501649305,-6.627116761231521 L 57.633091046525706,-3.7022032507107054 L 65.23604886936951,-5.55828308306119 L 59.18941030978284,-10.527001441925943 L 58.5224163398155,-7.602087931405126 A 71.71080491549209 71.71080491549209 0 0 0 50.947633995434444,-8.906926027919397"/><text text-anchor="middle" pointer-events="none" font-size="8px" fill="#000000" x="41.24037344586971" y="-5.884345212899689" transform="rotate(180 41.24037344586971 -8.884345212899689)" font-family="sans-serif">trek</text></g><g class="relationship" transform="translate(-29.044393430403233 86.41801305331376) rotate(314.0592247493721)"><path class="outline" fill="#A5ABB6" stroke="none" d="M 25 0.5 L 36.857506548192234 0.5 L 36.857506548192234 -0.5 L 25 -0.5 Z M 58.869225298192234 0.5 L 70.72673184638447 0.5 L 70.72673184638447 3.5 L 77.72673184638447 0 L 70.72673184638447 -3.5 L 70.72673184638447 -0.5 L 58.869225298192234 -0.5 Z"/><text text-anchor="middle" pointer-events="none" font-size="8px" fill="#000000" x="47.863365923192234" y="3" font-family="sans-serif">road</text></g><g class="relationship" transform="translate(-29.044393430403233 86.41801305331376) rotate(314.0592247493721)"><path class="outline" fill="#A5ABB6" stroke="none" d="M 21.40063509461097,-12.933012701892217 L 21.90063509461097,-12.06698729810778 A 55.04137041013782 55.04137041013782 0 0 1 23.04329758188795,-12.708688707341622 L 22.56405764797574,-13.586372640055338 A 56.04137041013782 56.04137041013782 0 0 0 21.40063509461097,-12.933012701892217 Z M 73.06141268064736,-15.21099359770448 L 72.63957980597,-14.304319992793964 A 55.04137041013782 55.04137041013782 0 0 1 73.82112673485533,-13.737393971796173 L 72.491228537189,-11.048273151928855 L 80.31739168082345,-11.082484980552653 L 75.59432433174375,-17.322888398285933 L 74.26442613407742,-14.633767578418613 A 56.04137041013782 56.04137041013782 0 0 0 73.06141268064736,-15.21099359770448"/><text text-anchor="middle" pointer-events="none" font-size="8px" fill="#000000" x="47.63534533579296" y="-16.912410556478726" font-family="sans-serif">PublicTran…</text></g><g class="relationship" transform="translate(42.39193583497205 12.596388193602984) rotate(345.1287391973351)"><path class="outline" fill="#A5ABB6" stroke="none" d="M 24.018736134675446,-6.953439040707552 L 24.277555179777966,-5.987513214418485 A 134.2748578103026 134.2748578103026 0 0 1 34.130395937695,-8.233877047930264 L 33.944955043339334,-9.216532468055021 A 135.2748578103026 135.2748578103026 0 0 0 24.018736134675446,-6.953439040707552 Z M 80.34691290953975,-9.872747465247471 L 80.18933398027623,-8.885241069798724 A 134.2748578103026 134.2748578103026 0 0 1 90.1017577893723,-6.918396972711639 L 89.40755533099953,-3.9998214731246895 L 97.0274676981373,-5.785020486439684 L 91.02736106720265,-10.809830972160906 L 90.33315860882988,-7.891255472573956 A 135.2748578103026 135.2748578103026 0 0 0 80.34691290953975,-9.872747465247471"/><text text-anchor="middle" pointer-events="none" font-size="8px" fill="#000000" x="57.12465451590963" y="-8.049342899606188" font-family="sans-serif">twowheeler</text></g><g class="relationship" transform="translate(159.67627559353235 -18.54757601771094) rotate(431.5461693739537)"><path class="outline" fill="#A5ABB6" stroke="none" d="M 24.018736134675446,-6.953439040707552 L 24.277555179777966,-5.987513214418485 A 120.55480372102355 120.55480372102355 0 0 1 30.718597343591092,-7.525097074218351 L 30.513206631205353,-8.503777131880554 A 121.55480372102355 121.55480372102355 0 0 0 24.018736134675446,-6.953439040707552 Z M 76.87890451217103,-9.196826748043023 L 76.7028565939011,-8.212445150047202 A 120.55480372102355 120.55480372102355 0 0 1 83.18697689130178,-6.868059695360931 L 82.49747614123517,-3.94836986326274 L 90.11450329120866,-5.745839583888513 L 84.10631122472394,-10.760979471491854 L 83.41681047465732,-7.841289639393662 A 121.55480372102355 121.55480372102355 0 0 0 76.87890451217103,-9.196826748043023"/><text text-anchor="middle" pointer-events="none" font-size="8px" fill="#000000" x="53.670174105523735" y="-7.581797366713801" font-family="sans-serif">twowheeler</text></g><g class="relationship" transform="translate(195.90281992604076 90.0127904442456) rotate(323.2066339056367)"><path class="outline" fill="#A5ABB6" stroke="none" d="M 25 0.5 L 26.083530868863342 0.5 L 26.083530868863342 -0.5 L 25 -0.5 Z M 48.08353086886334 0.5 L 49.167061737726684 0.5 L 49.167061737726684 3.5 L 56.167061737726684 0 L 49.167061737726684 -3.5 L 49.167061737726684 -0.5 L 48.08353086886334 -0.5 Z"/><text text-anchor="middle" pointer-events="none" font-size="8px" fill="#000000" x="37.08353086886334" y="3" font-family="sans-serif">tw…</text></g><g class="relationship" transform="translate(159.67627559353235 -18.54757601771094) rotate(390.6345836088419)"><path class="outline" fill="#A5ABB6" stroke="none" d="M 24.018736134675446,6.953439040707552 L 24.277555179777966,5.987513214418485 A 126.91794004354176 126.91794004354176 0 0 0 32.29804147978333,7.859932690836999 L 32.102416702545966,8.840611510089687 A 127.91794004354176 127.91794004354176 0 0 1 24.018736134675446,6.953439040707552 Z M 78.48663865245541,9.516109646401375 L 78.31965422934041,8.530150112527423 A 126.91794004354176 126.91794004354176 0 0 0 86.39126412447618,6.8920814677538855 L 85.699519626743,3.972922419353837 L 93.31792598703181,5.764537481109814 L 87.31359012145374,10.784293532287283 L 86.62184562372056,7.865134483887235 A 127.91794004354176 127.91794004354176 0 0 1 78.48663865245541,9.516109646401375"/><text text-anchor="middle" pointer-events="none" font-size="8px" fill="#000000" x="55.27093156352547" y="13.798627650717322" font-family="sans-serif">twowheeler</text></g><g class="relationship" transform="translate(159.67627559353235 -18.54757601771094) rotate(431.5461693739537)"><path class="outline" fill="#A5ABB6" stroke="none" d="M 24.018736134675446,6.953439040707552 L 24.277555179777966,5.987513214418485 A 120.55480372102355 120.55480372102355 0 0 0 44.066659699461574,9.55388605015996 L 43.971990932148714,10.549394877089924 A 121.55480372102355 121.55480372102355 0 0 1 24.018736134675446,6.953439040707552 Z M 63.364993034737,10.839271084667814 L 63.300120578594004,9.84137752098782 A 120.55480372102355 120.55480372102355 0 0 0 83.18697689130178,6.868059695360931 L 82.49747614123517,3.94836986326274 L 90.11450329120866,5.745839583888513 L 84.10631122472394,10.760979471491854 L 83.41681047465732,7.841289639393662 A 121.55480372102355 121.55480372102355 0 0 1 63.364993034737,10.839271084667814"/><text text-anchor="middle" pointer-events="none" font-size="8px" fill="#000000" x="53.67017410552375" y="13.5817973667138" font-family="sans-serif">trek</text></g><g class="relationship" transform="translate(195.90281992604076 90.0127904442456) rotate(323.2066339056367)"><path class="outline" fill="#A5ABB6" stroke="none" d="M 21.40063509461097,-12.933012701892217 L 21.90063509461097,-12.06698729810778 A 32.450004387337344 32.450004387337344 0 0 1 26.266680959278986,-14.16988812011651 L 25.901227809028313,-15.100717854800497 A 33.450004387337344 33.450004387337344 0 0 0 21.40063509461097,-12.933012701892217 Z M 47.81613242773017,-15.98003500291101 L 47.52643156469773,-15.02291776351018 A 32.450004387337344 32.450004387337344 0 0 1 52.046924821060145,-13.276581862610369 L 50.75990303518209,-10.566678742077226 L 58.58453573328382,-10.725181548983771 L 53.762953868897554,-16.88978602332123 L 52.4759320830195,-14.179882902788085 A 33.450004387337344 33.450004387337344 0 0 0 47.81613242773017,-15.98003500291101"/><text text-anchor="middle" pointer-events="none" font-size="8px" fill="#000000" x="36.804608992939556" y="-13.88797161585154" font-family="sans-serif">road</text></g><g class="relationship" transform="translate(260.9014616191671 41.39933048525364) rotate(483.91481112024786)"><path class="outline" fill="#A5ABB6" stroke="none" d="M 24.018736134675446,-6.953439040707552 L 24.277555179777966,-5.987513214418485 A 180.5613047201201 180.5613047201201 0 0 1 59.218763318637734,-11.754559215216489 L 59.153458649126485,-12.752424586967607 A 181.5613047201201 181.5613047201201 0 0 0 24.018736134675446,-6.953439040707552 Z M 78.53219501546485,-12.984109766199936 L 78.49076583881758,-11.984968323098741 A 180.5613047201201 180.5613047201201 0 0 1 113.5598643348719,-7.0549402854016 L 112.85290879834227,-4.139427659915285 L 120.48055305042824,-5.891296137746862 L 114.5024717169114,-10.942290452716689 L 113.79551618038177,-8.026777827230372 A 181.5613047201201 181.5613047201201 0 0 0 78.53219501546485,-12.984109766199936"/><text text-anchor="middle" pointer-events="none" font-size="8px" fill="#000000" x="68.84571071801436" y="-9.627051656288785" transform="rotate(180 68.84571071801436 -12.627051656288785)" font-family="sans-serif">trek</text></g><g class="relationship" transform="translate(58.31312724913471 141.37523798175684) rotate(369.4018998988888)"><path class="outline" fill="#A5ABB6" stroke="none" d="M 25 0.5 L 48.56576302873119 0.5 L 48.56576302873119 -0.5 L 25 -0.5 Z M 67.9017005287312 0.5 L 91.46746355746238 0.5 L 91.46746355746238 3.5 L 98.46746355746238 0 L 91.46746355746238 -3.5 L 91.46746355746238 -0.5 L 67.9017005287312 -0.5 Z"/><text text-anchor="middle" pointer-events="none" font-size="8px" fill="#000000" x="58.23373177873119" y="3" font-family="sans-serif">trek</text></g><g class="relationship" transform="translate(-66.17886576275299 141.39053946862145) rotate(359.99295769477226)"><path class="outline" fill="#A5ABB6" stroke="none" d="M 21.40063509461097,-12.933012701892217 L 21.90063509461097,-12.06698729810778 A 77.48569838482693 77.48569838482693 0 0 1 49.00491342608736,-21.56904295997856 L 48.854710600229936,-22.55769816332524 A 78.48569838482693 78.48569838482693 0 0 0 21.40063509461097,-12.933012701892217 Z M 68.25784008997356,-23.077872680070627 L 68.16082425193368,-22.082589842295647 A 77.48569838482693 77.48569838482693 0 0 1 95.73528166904052,-14.046405186403714 L 94.37663879247759,-11.371692204798991 L 102.20271910554536,-11.322023971357684 L 97.54680550445775,-17.61268916187668 L 96.18816262789483,-14.937976180271956 A 78.48569838482693 78.48569838482693 0 0 0 68.25784008997356,-23.077872680070627"/><text text-anchor="middle" pointer-events="none" font-size="8px" fill="#000000" x="58.55353260382259" y="-19.920092940584652" font-family="sans-serif">trek</text></g><g class="relationship" transform="translate(-66.17886576275299 141.39053946862145) rotate(359.99295769477226)"><path class="outline" fill="#A5ABB6" stroke="none" d="M 25 0.5 L 35.513575101125696 0.5 L 35.513575101125696 -0.5 L 25 -0.5 Z M 81.9784188511257 0.5 L 92.49199395225139 0.5 L 92.49199395225139 3.5 L 99.49199395225139 0 L 92.49199395225139 -3.5 L 92.49199395225139 -0.5 L 81.9784188511257 -0.5 Z"/><text text-anchor="middle" pointer-events="none" font-size="8px" fill="#000000" x="58.745996976125696" y="3" font-family="sans-serif">twowheeler</text></g><g class="relationship" transform="translate(42.39193583497205 12.596388193602984) rotate(442.9521693301824)"><path class="outline" fill="#A5ABB6" stroke="none" d="M 25 0.5 L 51.71168231411697 0.5 L 51.71168231411697 -0.5 L 25 -0.5 Z M 71.04761981411697 0.5 L 97.75930212823394 0.5 L 97.75930212823394 3.5 L 104.75930212823394 0 L 97.75930212823394 -3.5 L 97.75930212823394 -0.5 L 71.04761981411697 -0.5 Z"/><text text-anchor="middle" pointer-events="none" font-size="8px" fill="#000000" x="61.37965106411697" y="3" font-family="sans-serif">trek</text></g><g class="relationship" transform="translate(260.9014616191671 41.39933048525364) rotate(483.91481112024786)"><path class="outline" fill="#A5ABB6" stroke="none" d="M 24.018736134675446,6.953439040707552 L 24.277555179777966,5.987513214418485 A 180.5613047201201 180.5613047201201 0 0 0 45.76634039102652,10.366630827727022 L 45.626532366832144,11.356809456243553 A 181.5613047201201 181.5613047201201 0 0 1 24.018736134675446,6.953439040707552 Z M 92.08862101810223,11.912293422441508 L 91.97252600875709,10.919055309597866 A 180.5613047201201 180.5613047201201 0 0 0 113.5598643348719,7.0549402854016 L 112.85290879834227,4.139427659915285 L 120.48055305042824,5.891296137746862 L 114.5024717169114,10.942290452716689 L 113.79551618038177,8.026777827230372 A 181.5613047201201 181.5613047201201 0 0 1 92.08862101810223,11.912293422441508"/><text text-anchor="middle" pointer-events="none" font-size="8px" fill="#000000" x="68.84571071801435" y="15.627051656288785" transform="rotate(180 68.84571071801435 12.627051656288785)" font-family="sans-serif">twowheeler</text></g><g class="relationship" transform="translate(42.39193583497205 12.596388193602984) rotate(180.95977555681884)"><path class="outline" fill="#A5ABB6" stroke="none" d="M 25 0.5 L 46.44135614583663 0.5 L 46.44135614583663 -0.5 L 25 -0.5 Z M 65.77729364583664 0.5 L 87.21864979167326 0.5 L 87.21864979167326 3.5 L 94.21864979167326 0 L 87.21864979167326 -3.5 L 87.21864979167326 -0.5 L 65.77729364583664 -0.5 Z"/><text text-anchor="middle" pointer-events="none" font-size="8px" fill="#000000" x="56.10932489583663" y="3" transform="rotate(180 56.10932489583663 0)" font-family="sans-serif">trek</text></g><g class="relationship" transform="translate(-76.8099877232656 10.59942095158333) rotate(445.3530312619004)"><path class="outline" fill="#A5ABB6" stroke="none" d="M 21.40063509461097,12.933012701892217 L 21.90063509461097,12.06698729810778 A 84.38056516493721 84.38056516493721 0 0 0 39.21956321277694,19.623125955365396 L 38.92481104543027,20.578699688702827 A 85.38056516493721 85.38056516493721 0 0 1 21.40063509461097,12.933012701892217 Z M 85.06697633182867,21.755069934426928 L 84.82129912631677,20.7857182383476 A 84.38056516493721 84.38056516493721 0 0 0 102.50275767069931,14.121896038349888 L 101.137093435628,11.450761223884868 L 108.96301627696292,11.380535292260987 L 104.32364331746106,17.68340912430325 L 102.95797908238976,15.01227430983823 A 85.38056516493721 85.38056516493721 0 0 1 85.06697633182867,21.755069934426928"/><text text-anchor="middle" pointer-events="none" font-size="8px" fill="#000000" x="61.9276352105593" y="26.844268049333692" font-family="sans-serif">twowheeler</text></g><g class="relationship" transform="translate(-66.17886576275299 141.39053946862145) rotate(359.99295769477226)"><path class="outline" fill="#A5ABB6" stroke="none" d="M 21.40063509461097,12.933012701892217 L 21.90063509461097,12.06698729810778 A 77.48569838482693 77.48569838482693 0 0 0 47.69245850143757,21.358113274162875 L 47.52531764763425,22.344046301802123 A 78.48569838482693 78.48569838482693 0 0 1 21.40063509461097,12.933012701892217 Z M 69.59677078555981,22.935755359660945 L 69.48269539752368,21.942283263503015 A 77.48569838482693 77.48569838482693 0 0 0 95.73528166904052,14.046405186403714 L 94.37663879247759,11.371692204798991 L 102.20271910554536,11.322023971357684 L 97.54680550445775,17.61268916187668 L 96.18816262789483,14.937976180271956 A 78.48569838482693 78.48569838482693 0 0 1 69.59677078555981,22.935755359660945"/><text text-anchor="middle" pointer-events="none" font-size="8px" fill="#000000" x="58.55353260382262" y="25.920092940584652" font-family="sans-serif">road</text></g></g><g class="layer nodes"><g class="node" transform="translate(-29.044393430403233,86.41801305331376)"><circle class="outline" cx="0" cy="0" r="25" fill="#F16667" stroke="#eb2728" stroke-width="2px"/><text text-anchor="middle" pointer-events="none" font-family="sans-serif" dy="1.5625" font-size="25" fill="#FFFFFF"/><text text-anchor="middle" pointer-events="none" y="5" font-size="10px" fill="#FFFFFF" font-family="sans-serif"> Darjeeling</text></g><g class="node" transform="translate(180.1220209163788,161.54471940482088)"><circle class="outline" cx="0" cy="0" r="25" fill="#D9C8AE" stroke="#c0a378" stroke-width="2px"/><text text-anchor="middle" pointer-events="none" font-family="sans-serif" dy="1.5625" font-size="25" fill="#604A0E"/><text text-anchor="middle" pointer-events="none" y="5" font-size="10px" fill="#604A0E" font-family="sans-serif"> Sandak…</text></g><g class="node" transform="translate(278.5559935535179,178.69418954228715)"><circle class="outline" cx="0" cy="0" r="25" fill="#D9C8AE" stroke="#c0a378" stroke-width="2px"/><text text-anchor="middle" pointer-events="none" font-family="sans-serif" dy="1.5625" font-size="25" fill="#604A0E"/><text text-anchor="middle" pointer-events="none" y="5" font-size="10px" fill="#604A0E" font-family="sans-serif"> Sabargr…</text></g><g class="node" transform="translate(42.39193583497205,12.596388193602984)"><circle class="outline" cx="0" cy="0" r="25" fill="#F16667" stroke="#eb2728" stroke-width="2px"/><text text-anchor="middle" pointer-events="none" font-family="sans-serif" dy="1.5625" font-size="25" fill="#FFFFFF"/><text text-anchor="middle" pointer-events="none" y="5" font-size="10px" fill="#FFFFFF" font-family="sans-serif"> Rimbik</text></g><g class="node" transform="translate(159.67627559353235,-18.54757601771094)"><circle class="outline" cx="0" cy="0" r="25" fill="#8DCC93" stroke="#5db665" stroke-width="2px"/><text text-anchor="middle" pointer-events="none" font-family="sans-serif" dy="1.5625" font-size="25" fill="#604A0E"/><text text-anchor="middle" pointer-events="none" y="5" font-size="10px" fill="#604A0E" font-family="sans-serif"> Sirikhola</text></g><g class="node" transform="translate(260.9014616191671,41.39933048525364)"><circle class="outline" cx="0" cy="0" r="25" fill="#8DCC93" stroke="#5db665" stroke-width="2px"/><text text-anchor="middle" pointer-events="none" font-family="sans-serif" dy="1.5625" font-size="25" fill="#604A0E"/><text text-anchor="middle" pointer-events="none" y="5" font-size="10px" fill="#604A0E" font-family="sans-serif"> Gurdum</text></g><g class="node" transform="translate(195.90281992604076,90.0127904442456)"><circle class="outline" cx="0" cy="0" r="25" fill="#8DCC93" stroke="#5db665" stroke-width="2px"/><text text-anchor="middle" pointer-events="none" font-family="sans-serif" dy="1.5625" font-size="25" fill="#604A0E"/><text text-anchor="middle" pointer-events="none" y="5" font-size="10px" fill="#604A0E" font-family="sans-serif"> Rammam</text></g><g class="node" transform="translate(-76.8099877232656,10.59942095158333)"><circle class="outline" cx="0" cy="0" r="25" fill="#8DCC93" stroke="#5db665" stroke-width="2px"/><text text-anchor="middle" pointer-events="none" font-family="sans-serif" dy="1.5625" font-size="25" fill="#604A0E"/><text text-anchor="middle" pointer-events="none" y="5" font-size="10px" fill="#604A0E" font-family="sans-serif"> Tumbling</text></g><g class="node" transform="translate(-66.17886576275299,141.39053946862145)"><circle class="outline" cx="0" cy="0" r="25" fill="#8DCC93" stroke="#5db665" stroke-width="2px"/><text text-anchor="middle" pointer-events="none" font-family="sans-serif" dy="1.5625" font-size="25" fill="#604A0E"/><text text-anchor="middle" pointer-events="none" y="5" font-size="10px" fill="#604A0E" font-family="sans-serif"> Gairibus</text></g><g class="node" transform="translate(58.31312724913471,141.37523798175684)"><circle class="outline" cx="0" cy="0" r="25" fill="#8DCC93" stroke="#5db665" stroke-width="2px"/><text text-anchor="middle" pointer-events="none" font-family="sans-serif" dy="1.5625" font-size="25" fill="#604A0E"/><text text-anchor="middle" pointer-events="none" y="5" font-size="10px" fill="#604A0E" font-family="sans-serif"> BhikeBh…</text></g></g></svg>