<svg xmlns="http://www.w3.org/2000/svg" width="163.60433959960938" height="243.37530517578125" viewBox="-1.4335861206054688 -20.720420837402344 163.60433959960938 243.37530517578125"><title>Neo4j Graph Visualization</title><desc>Created using Neo4j (http://www.neo4j.com/)</desc><g class="layer relationships"><g class="relationship" transform="translate(133.1707578912811 8.279577776817495) rotate(522.0326982688566)"><path class="outline" fill="#A5ABB6" stroke="none" d="M 21.40063509461097,12.933012701892217 L 21.90063509461097,12.06698729810778 A 59.9395329302189 59.9395329302189 0 0 0 39.204295409453074,18.74381173800124 L 38.99298068057434,19.721229808920185 A 60.9395329302189 60.9395329302189 0 0 1 21.40063509461097,12.933012701892217 Z M 61.053860730221054,20.401424196571156 L 60.90316283791826,19.412844333709536 A 59.9395329302189 59.9395329302189 0 0 0 78.58529170336777,13.814722891811632 L 77.24819969558978,11.129171744889238 L 85.07442638081636,11.142433398150025 L 80.36808104707178,17.395457754374824 L 79.03098903929379,14.70990660745243 A 60.9395329302189 60.9395329302189 0 0 1 61.053860730221054,20.401424196571156"/><text text-anchor="middle" pointer-events="none" font-size="8px" fill="#000000" x="50.00777849028962" y="23.56865408082094" transform="rotate(180 50.00777849028962 20.56865408082094)" font-family="sans-serif">road</text></g><g class="relationship" transform="translate(30.956979393412656 41.42636861485879) rotate(451.8214922756923)"><path class="outline" fill="#A5ABB6" stroke="none" d="M 25 0.5 L 40.166834939150434 0.5 L 40.166834939150434 -0.5 L 25 -0.5 Z M 59.502772439150434 0.5 L 74.66960737830087 0.5 L 74.66960737830087 3.5 L 81.66960737830087 0 L 74.66960737830087 -3.5 L 74.66960737830087 -0.5 L 59.502772439150434 -0.5 Z"/><text text-anchor="middle" pointer-events="none" font-size="8px" fill="#000000" x="49.834803689150434" y="3" transform="rotate(180 49.834803689150434 0)" font-family="sans-serif">trek</text></g><g class="relationship" transform="translate(27.566413095348107 148.04207664336315) rotate(385.14756112896225)"><path class="outline" fill="#A5ABB6" stroke="none" d="M 25 0.5 L 40.500335447901605 0.5 L 40.500335447901605 -0.5 L 25 -0.5 Z M 59.836272947901605 0.5 L 75.33660839580321 0.5 L 75.33660839580321 3.5 L 82.33660839580321 0 L 75.33660839580321 -3.5 L 75.33660839580321 -0.5 L 59.836272947901605 -0.5 Z"/><text text-anchor="middle" pointer-events="none" font-size="8px" fill="#000000" x="50.168304197901605" y="3" font-family="sans-serif">trek</text></g><g class="relationship" transform="translate(133.1707578912811 8.279577776817495) rotate(522.0326982688566)"><path class="outline" fill="#A5ABB6" stroke="none" d="M 25 0.5 L 26.478962760918165 0.5 L 26.478962760918165 -0.5 L 25 -0.5 Z M 73.97505651091817 0.5 L 75.45401927183633 0.5 L 75.45401927183633 3.5 L 82.45401927183633 0 L 75.45401927183633 -3.5 L 75.45401927183633 -0.5 L 73.97505651091817 -0.5 Z"/><text text-anchor="middle" pointer-events="none" font-size="8px" fill="#000000" x="50.227009635918165" y="3" transform="rotate(180 50.227009635918165 0)" font-family="sans-serif">PublicTra…</text></g><g class="relationship" transform="translate(133.1707578912811 8.279577776817495) rotate(522.0326982688566)"><path class="outline" fill="#A5ABB6" stroke="none" d="M 21.40063509461097,-12.933012701892217 L 21.90063509461097,-12.06698729810778 A 59.9395329302189 59.9395329302189 0 0 1 40.504152992869464,-19.009812925365054 L 40.31452441201143,-19.99166882177846 A 60.9395329302189 60.9395329302189 0 0 0 21.40063509461097,-12.933012701892217 Z M 59.71816642257967,-20.589933640130006 L 59.589386885134815,-19.59826039216196 A 59.9395329302189 59.9395329302189 0 0 1 78.58529170336777,-13.814722891811632 L 77.24819969558978,-11.129171744889238 L 85.07442638081636,-11.142433398150025 L 80.36808104707178,-17.395457754374824 L 79.03098903929379,-14.70990660745243 A 60.9395329302189 60.9395329302189 0 0 0 59.71816642257967,-20.589933640130006"/><text text-anchor="middle" pointer-events="none" font-size="8px" fill="#000000" x="50.00777849028961" y="-17.56865408082094" transform="rotate(180 50.00777849028961 -20.56865408082094)" font-family="sans-serif">trek</text></g></g><g class="layer nodes"><g class="node" transform="translate(133.1707578912811,8.279577776817495)"><circle class="outline" cx="0" cy="0" r="25" fill="#F16667" stroke="#eb2728" stroke-width="2px"/><text text-anchor="middle" pointer-events="none" font-family="sans-serif" dy="1.5625" font-size="25" fill="#FFFFFF"/><text text-anchor="middle" pointer-events="none" y="5" font-size="10px" fill="#FFFFFF" font-family="sans-serif"> Darjeeling</text></g><g class="node" transform="translate(124.72926702458246,193.65487438961287)"><circle class="outline" cx="0" cy="0" r="25" fill="#D9C8AE" stroke="#c0a378" stroke-width="2px"/><text text-anchor="middle" pointer-events="none" font-family="sans-serif" dy="1.5625" font-size="25" fill="#604A0E"/><text text-anchor="middle" pointer-events="none" y="5" font-size="10px" fill="#604A0E" font-family="sans-serif"> Sandak…</text></g><g class="node" transform="translate(30.956979393412656,41.42636861485879)"><circle class="outline" cx="0" cy="0" r="25" fill="#F16667" stroke="#eb2728" stroke-width="2px"/><text text-anchor="middle" pointer-events="none" font-family="sans-serif" dy="1.5625" font-size="25" fill="#FFFFFF"/><text text-anchor="middle" pointer-events="none" y="5" font-size="10px" fill="#FFFFFF" font-family="sans-serif"> Rimbik</text></g><g class="node" transform="translate(27.566413095348107,148.04207664336315)"><circle class="outline" cx="0" cy="0" r="25" fill="#8DCC93" stroke="#5db665" stroke-width="2px"/><text text-anchor="middle" pointer-events="none" font-family="sans-serif" dy="1.5625" font-size="25" fill="#604A0E"/><text text-anchor="middle" pointer-events="none" y="5" font-size="10px" fill="#604A0E" font-family="sans-serif"> BhikeBh…</text></g></g></svg>