<svg xmlns="http://www.w3.org/2000/svg" width="288.0457763671875" height="284.09490966796875" viewBox="-51.0124397277832 -41.82276916503906 288.0457763671875 284.09490966796875"><title>Neo4j Graph Visualization</title><desc>Created using Neo4j (http://www.neo4j.com/)</desc><g class="layer relationships"><g class="relationship" transform="translate(152.60558279637445 205.33740682702916) rotate(238.65169237158324)"><path class="outline" fill="#A5ABB6" stroke="none" d="M 25 0.5 L 37.421975971568976 0.5 L 37.421975971568976 -0.5 L 25 -0.5 Z M 73.19541347156897 0.5 L 85.61738944313795 0.5 L 85.61738944313795 3.5 L 92.61738944313795 0 L 85.61738944313795 -3.5 L 85.61738944313795 -0.5 L 73.19541347156897 -0.5 Z"/><text text-anchor="middle" pointer-events="none" font-size="8px" fill="#000000" x="55.308694721568976" y="3" transform="rotate(180 55.308694721568976 0)" font-family="sans-serif">WROTE</text></g><g class="relationship" transform="translate(208.03332970749514 119.76975742918245) rotate(187.27149711975284)"><path class="outline" fill="#A5ABB6" stroke="none" d="M 25 0.5 L 37.39449763991332 0.5 L 37.39449763991332 -0.5 L 25 -0.5 Z M 73.16793513991331 0.5 L 85.56243277982664 0.5 L 85.56243277982664 3.5 L 92.56243277982664 0 L 85.56243277982664 -3.5 L 85.56243277982664 -0.5 L 73.16793513991331 -0.5 Z"/><text text-anchor="middle" pointer-events="none" font-size="8px" fill="#000000" x="55.28121638991332" y="3" transform="rotate(180 55.28121638991332 0)" font-family="sans-serif">WROTE</text></g><g class="relationship" transform="translate(180.81628253577537 29.28061307160261) rotate(499.7774381835203)"><path class="outline" fill="#A5ABB6" stroke="none" d="M 25 0.5 L 32.26164382431227 0.5 L 32.26164382431227 -0.5 L 25 -0.5 Z M 77.82414382431227 0.5 L 85.08578764862455 0.5 L 85.08578764862455 3.5 L 92.08578764862455 0 L 85.08578764862455 -3.5 L 85.08578764862455 -0.5 L 77.82414382431227 -0.5 Z"/><text text-anchor="middle" pointer-events="none" font-size="8px" fill="#000000" x="55.04289382431227" y="3" transform="rotate(180 55.04289382431227 0)" font-family="sans-serif">ACTED_IN</text></g><g class="relationship" transform="translate(96.16221535399401 -12.822769512994112) rotate(452.3087487753447)"><path class="outline" fill="#A5ABB6" stroke="none" d="M 25 0.5 L 32.62282201205249 0.5 L 32.62282201205249 -0.5 L 25 -0.5 Z M 78.1853220120525 0.5 L 85.80814402410498 0.5 L 85.80814402410498 3.5 L 92.80814402410498 0 L 85.80814402410498 -3.5 L 85.80814402410498 -0.5 L 78.1853220120525 -0.5 Z"/><text text-anchor="middle" pointer-events="none" font-size="8px" fill="#000000" x="55.40407201205249" y="3" transform="rotate(180 55.40407201205249 0)" font-family="sans-serif">ACTED_IN</text></g><g class="relationship" transform="translate(0.7856828965448364 30.710740705962788) rotate(399.299481397189)"><path class="outline" fill="#A5ABB6" stroke="none" d="M 25 0.5 L 32.27737343519788 0.5 L 32.27737343519788 -0.5 L 25 -0.5 Z M 77.83987343519789 0.5 L 85.11724687039576 0.5 L 85.11724687039576 3.5 L 92.11724687039576 0 L 85.11724687039576 -3.5 L 85.11724687039576 -0.5 L 77.83987343519789 -0.5 Z"/><text text-anchor="middle" pointer-events="none" font-size="8px" fill="#000000" x="55.05862343519788" y="3" font-family="sans-serif">ACTED_IN</text></g><g class="relationship" transform="translate(-22.012440412399226 133.86255961291505) rotate(345.67146492006225)"><path class="outline" fill="#A5ABB6" stroke="none" d="M 25 0.5 L 31.589983280137766 0.5 L 31.589983280137766 -0.5 L 25 -0.5 Z M 78.48060828013777 0.5 L 85.07059156027553 0.5 L 85.07059156027553 3.5 L 92.07059156027553 0 L 85.07059156027553 -3.5 L 85.07059156027553 -0.5 L 78.48060828013777 -0.5 Z"/><text text-anchor="middle" pointer-events="none" font-size="8px" fill="#000000" x="55.035295780137766" y="3" font-family="sans-serif">DIRECTED</text></g><g class="relationship" transform="translate(48.3130925660152 213.27213993917292) rotate(291.6875413671662)"><path class="outline" fill="#A5ABB6" stroke="none" d="M 25 0.5 L 32.03821039432812 0.5 L 32.03821039432812 -0.5 L 25 -0.5 Z M 77.60071039432812 0.5 L 84.63892078865624 0.5 L 84.63892078865624 3.5 L 91.63892078865624 0 L 84.63892078865624 -3.5 L 84.63892078865624 -0.5 L 77.60071039432812 -0.5 Z"/><text text-anchor="middle" pointer-events="none" font-size="8px" fill="#000000" x="54.81946039432812" y="3" font-family="sans-serif">ACTED_IN</text></g></g><g class="layer nodes"><g class="node" transform="translate(91.4163891994219,104.88974440338964)"><circle class="outline" cx="0" cy="0" r="25" fill="#57C7E3" stroke="#23b3d7" stroke-width="2px"/><text text-anchor="middle" pointer-events="none" font-family="sans-serif" dy="1.5625" font-size="25" fill="#FFFFFF"/><text text-anchor="middle" pointer-events="none" font-family="sans-serif" dy="1.5625" font-size="25" fill="#FFFFFF"/><text text-anchor="middle" pointer-events="none" font-family="sans-serif" dy="1.5625" font-size="25" fill="#FFFFFF"/><text text-anchor="middle" pointer-events="none" y="-5" font-size="10px" fill="#FFFFFF" font-family="sans-serif"> Captain</text><text text-anchor="middle" pointer-events="none" y="5" font-size="10px" fill="#FFFFFF" font-family="sans-serif"> America:</text><text text-anchor="middle" pointer-events="none" y="15" font-size="10px" fill="#FFFFFF" font-family="sans-serif"> The Fi…</text></g><g class="node" transform="translate(152.60558279637445,205.33740682702916)"><circle class="outline" cx="0" cy="0" r="25" fill="#F79767" stroke="#f36924" stroke-width="2px"/><text text-anchor="middle" pointer-events="none" font-family="sans-serif" dy="1.5625" font-size="25" fill="#FFFFFF"/><text text-anchor="middle" pointer-events="none" y="5" font-size="10px" fill="#FFFFFF" font-family="sans-serif"> Christop…</text></g><g class="node" transform="translate(208.03332970749514,119.76975742918245)"><circle class="outline" cx="0" cy="0" r="25" fill="#F79767" stroke="#f36924" stroke-width="2px"/><text text-anchor="middle" pointer-events="none" font-family="sans-serif" dy="1.5625" font-size="25" fill="#FFFFFF"/><text text-anchor="middle" pointer-events="none" font-family="sans-serif" dy="1.5625" font-size="25" fill="#FFFFFF"/><text text-anchor="middle" pointer-events="none" y="0" font-size="10px" fill="#FFFFFF" font-family="sans-serif"> Stephen</text><text text-anchor="middle" pointer-events="none" y="10" font-size="10px" fill="#FFFFFF" font-family="sans-serif"> McFeely</text></g><g class="node" transform="translate(180.81628253577537,29.28061307160261)"><circle class="outline" cx="0" cy="0" r="25" fill="#F79767" stroke="#f36924" stroke-width="2px"/><text text-anchor="middle" pointer-events="none" font-family="sans-serif" dy="1.5625" font-size="25" fill="#FFFFFF"/><text text-anchor="middle" pointer-events="none" font-family="sans-serif" dy="1.5625" font-size="25" fill="#FFFFFF"/><text text-anchor="middle" pointer-events="none" y="0" font-size="10px" fill="#FFFFFF" font-family="sans-serif"> Tommy</text><text text-anchor="middle" pointer-events="none" y="10" font-size="10px" fill="#FFFFFF" font-family="sans-serif"> Lee Jon…</text></g><g class="node" transform="translate(96.16221535399401,-12.822769512994112)"><circle class="outline" cx="0" cy="0" r="25" fill="#F79767" stroke="#f36924" stroke-width="2px"/><text text-anchor="middle" pointer-events="none" font-family="sans-serif" dy="1.5625" font-size="25" fill="#FFFFFF"/><text text-anchor="middle" pointer-events="none" y="5" font-size="10px" fill="#FFFFFF" font-family="sans-serif"> Sebastian</text></g><g class="node" transform="translate(0.7856828965448364,30.710740705962788)"><circle class="outline" cx="0" cy="0" r="25" fill="#F79767" stroke="#f36924" stroke-width="2px"/><text text-anchor="middle" pointer-events="none" font-family="sans-serif" dy="1.5625" font-size="25" fill="#FFFFFF"/><text text-anchor="middle" pointer-events="none" font-family="sans-serif" dy="1.5625" font-size="25" fill="#FFFFFF"/><text text-anchor="middle" pointer-events="none" y="0" font-size="10px" fill="#FFFFFF" font-family="sans-serif"> Hayley</text><text text-anchor="middle" pointer-events="none" y="10" font-size="10px" fill="#FFFFFF" font-family="sans-serif"> Atwell</text></g><g class="node" transform="translate(-22.012440412399226,133.86255961291505)"><circle class="outline" cx="0" cy="0" r="25" fill="#F79767" stroke="#f36924" stroke-width="2px"/><text text-anchor="middle" pointer-events="none" font-family="sans-serif" dy="1.5625" font-size="25" fill="#FFFFFF"/><text text-anchor="middle" pointer-events="none" font-family="sans-serif" dy="1.5625" font-size="25" fill="#FFFFFF"/><text text-anchor="middle" pointer-events="none" y="0" font-size="10px" fill="#FFFFFF" font-family="sans-serif"> Joe</text><text text-anchor="middle" pointer-events="none" y="10" font-size="10px" fill="#FFFFFF" font-family="sans-serif"> Johnston</text></g><g class="node" transform="translate(48.3130925660152,213.27213993917292)"><circle class="outline" cx="0" cy="0" r="25" fill="#F79767" stroke="#f36924" stroke-width="2px"/><text text-anchor="middle" pointer-events="none" font-family="sans-serif" dy="1.5625" font-size="25" fill="#FFFFFF"/><text text-anchor="middle" pointer-events="none" font-family="sans-serif" dy="1.5625" font-size="25" fill="#FFFFFF"/><text text-anchor="middle" pointer-events="none" y="0" font-size="10px" fill="#FFFFFF" font-family="sans-serif"> Chris</text><text text-anchor="middle" pointer-events="none" y="10" font-size="10px" fill="#FFFFFF" font-family="sans-serif"> Evans</text></g></g></svg>