<svg xmlns="http://www.w3.org/2000/svg" width="379.6932373046875" height="371.081298828125" viewBox="-92.25190734863281 -82.7728271484375 379.6932373046875 371.081298828125"><title>Neo4j Graph Visualization</title><desc>Created using Neo4j (http://www.neo4j.com/)</desc><g class="layer relationships"><g class="relationship" transform="translate(152.1222334014357 259.3084798308251) rotate(305.6401124842044)"><path class="outline" fill="#A5ABB6" stroke="none" d="M 24.018736134675446,6.953439040707552 L 24.277555179777966,5.987513214418485 A 100.09767964242876 100.09767964242876 0 0 0 30.874522402882985,7.51799590808514 L 30.68160865395387,8.499211626199212 A 101.09767964242876 101.09767964242876 0 0 1 24.018736134675446,6.953439040707552 Z M 66.43895407683902,9.083049638903177 L 66.2781767662962,8.096058931543368 A 100.09767964242876 100.09767964242876 0 0 0 72.92159291612347,6.781762283693894 L 72.24015298797923,3.8601805846256023 L 79.85219020197353,5.678666067868706 L 73.83017948698247,10.677204549118283 L 73.14873955883823,7.755622850049992 A 101.09767964242876 101.09767964242876 0 0 1 66.43895407683902,9.083049638903177"/><text text-anchor="middle" pointer-events="none" font-size="8px" fill="#000000" x="48.542423323104416" y="12.884852132210227" font-family="sans-serif">WROTE</text></g><g class="relationship" transform="translate(152.1222334014357 259.3084798308251) rotate(305.6401124842044)"><path class="outline" fill="#A5ABB6" stroke="none" d="M 24.018736134675446,-6.953439040707552 L 24.277555179777966,-5.987513214418485 A 100.09767964242876 100.09767964242876 0 0 1 25.479684334960027,-6.301639305393394 L 25.232874850513422,-7.2707033272140364 A 101.09767964242876 101.09767964242876 0 0 0 24.018736134675446,-6.953439040707552 Z M 71.9248903597377,-8.033080210107656 L 71.70984932818465,-7.056475195401816 A 100.09767964242876 100.09767964242876 0 0 1 72.92159291612347,-6.781762283693894 L 72.24015298797923,-3.8601805846256023 L 79.85219020197353,-5.678666067868706 L 73.83017948698247,-10.677204549118283 L 73.14873955883823,-7.755622850049992 A 101.09767964242876 101.09767964242876 0 0 0 71.9248903597377,-8.033080210107656"/><text text-anchor="middle" pointer-events="none" font-size="8px" fill="#000000" x="48.54242332310439" y="-6.884852132210227" font-family="sans-serif">DIRECTED</text></g><g class="relationship" transform="translate(258.4413534912146 80.8511388269661) rotate(475.93375283980265)"><path class="outline" fill="#A5ABB6" stroke="none" d="M 24.018736134675446,6.953439040707552 L 24.277555179777966,5.987513214418485 A 100.25325012656408 100.25325012656408 0 0 0 30.9129062511753,7.525901120335291 L 30.720273100924274,8.507171964406567 A 101.25325012656408 101.25325012656408 0 0 1 24.018736134675446,6.953439040707552 Z M 66.47793473604509,9.090606711415674 L 66.31741713221736,8.10357373382 A 100.25325012656408 100.25325012656408 0 0 0 72.99942458039696,6.7824765942285685 L 72.3179179288215,3.8609104587699865 L 79.92999667172957,5.67922209646224 L 73.90810011583092,10.677898108173345 L 73.22659346425546,7.756331972714762 A 101.25325012656408 101.25325012656408 0 0 1 66.47793473604509,9.090606711415674"/><text text-anchor="middle" pointer-events="none" font-size="8px" fill="#000000" x="48.58129850259923" y="12.890151111002808" transform="rotate(180 48.58129850259923 9.890151111002808)" font-family="sans-serif">WROTE</text></g><g class="relationship" transform="translate(258.4413534912146 80.8511388269661) rotate(475.93375283980265)"><path class="outline" fill="#A5ABB6" stroke="none" d="M 24.018736134675446,-6.953439040707552 L 24.277555179777966,-5.987513214418485 A 100.25325012656408 100.25325012656408 0 0 1 25.517625022567557,-6.311307600132793 L 25.27117535044022,-7.280463190896384 A 101.25325012656408 101.25325012656408 0 0 0 24.018736134675446,-6.953439040707552 Z M 71.96415208366673,-8.042322435089673 L 71.74945135642554,-7.065642550110923 A 100.25325012656408 100.25325012656408 0 0 1 72.99942458039696,-6.7824765942285685 L 72.3179179288215,-3.8609104587699865 L 79.92999667172957,-5.67922209646224 L 73.90810011583092,-10.677898108173345 L 73.22659346425546,-7.756331972714762 A 101.25325012656408 101.25325012656408 0 0 0 71.96415208366673,-8.042322435089673"/><text text-anchor="middle" pointer-events="none" font-size="8px" fill="#000000" x="48.58129850259922" y="-6.890151111002808" transform="rotate(180 48.58129850259922 -9.890151111002808)" font-family="sans-serif">DIRECTED</text></g><g class="relationship" transform="translate(143.16312852662236 -53.77282476490976) rotate(534.7507955032473)"><path class="outline" fill="#A5ABB6" stroke="none" d="M 21.40063509461097,12.933012701892217 L 21.90063509461097,12.06698729810778 A 56.68971685684843 56.68971685684843 0 0 0 23.84570419778163,13.139723111146502 L 23.3800149901266,14.024671449680241 A 57.68971685684843 57.68971685684843 0 0 1 21.40063509461097,12.933012701892217 Z M 73.82259138828732,15.624164841735855 L 73.4139033386691,14.711490705968181 A 56.68971685684843 56.68971685684843 0 0 0 75.42302778123475,13.764139179358262 L 74.09064146917515,11.076250283693815 L 81.91683292312838,11.103219267163288 L 77.19954286398087,17.347991040244192 L 75.86715655192127,14.660102144579744 A 57.68971685684843 57.68971685684843 0 0 1 73.82259138828732,15.624164841735855"/><text text-anchor="middle" pointer-events="none" font-size="8px" fill="#000000" x="48.43296474712422" y="23.133239531080136" transform="rotate(180 48.43296474712422 20.133239531080136)" font-family="sans-serif">PRODUCED</text></g><g class="relationship" transform="translate(143.16312852662236 -53.77282476490976) rotate(534.7507955032473)"><path class="outline" fill="#A5ABB6" stroke="none" d="M 25 0.5 L 25.212641026832742 0.5 L 25.212641026832742 -0.5 L 25 -0.5 Z M 72.10326602683274 0.5 L 72.31590705366548 0.5 L 72.31590705366548 3.5 L 79.31590705366548 0 L 72.31590705366548 -3.5 L 72.31590705366548 -0.5 L 72.10326602683274 -0.5 Z"/><text text-anchor="middle" pointer-events="none" font-size="8px" fill="#000000" x="48.65795352683274" y="3" transform="rotate(180 48.65795352683274 0)" font-family="sans-serif">DIRECTED</text></g><g class="relationship" transform="translate(143.16312852662236 -53.77282476490976) rotate(534.7507955032473)"><path class="outline" fill="#A5ABB6" stroke="none" d="M 21.40063509461097,-12.933012701892217 L 21.90063509461097,-12.06698729810778 A 56.68971685684843 56.68971685684843 0 0 1 31.102048576399568,-16.331904847652225 L 30.764360438090883,-17.273162900072286 A 57.68971685684843 57.68971685684843 0 0 0 21.40063509461097,-12.933012701892217 Z M 66.24727339192138,-18.39829743627346 L 65.9698967511486,-17.43753617604613 A 56.68971685684843 56.68971685684843 0 0 1 75.42302778123475,-13.764139179358262 L 74.09064146917515,-11.076250283693815 L 81.91683292312838,-11.103219267163288 L 77.19954286398087,-17.347991040244192 L 75.86715655192127,-14.660102144579744 A 57.68971685684843 57.68971685684843 0 0 0 66.24727339192138,-18.39829743627346"/><text text-anchor="middle" pointer-events="none" font-size="8px" fill="#000000" x="48.4329647471242" y="-17.133239531080136" transform="rotate(180 48.4329647471242 -20.133239531080136)" font-family="sans-serif">WROTE</text></g><g class="relationship" transform="translate(-63.251912037746706 98.94881160924466) rotate(432.52194431970247)"><path class="outline" fill="#A5ABB6" stroke="none" d="M 21.40063509461097,12.933012701892217 L 21.90063509461097,12.06698729810778 A 57.586612038521004 57.586612038521004 0 0 0 31.522995676628238,16.497385147065586 L 31.190089385415632,17.44034506205194 A 58.586612038521004 58.586612038521004 0 0 1 21.40063509461097,12.933012701892217 Z M 66.68637362821575,18.557147256333593 L 66.41340285967516,17.59512492835863 A 57.586612038521004 57.586612038521004 0 0 0 76.29523931361254,13.778378071669803 L 74.96152837142606,11.091146201753839 L 82.7877321671142,11.114257851554006 L 78.07352056986119,17.361353898224422 L 76.7398096276747,14.674122028308457 A 58.586612038521004 58.586612038521004 0 0 1 66.68637362821575,18.557147256333593"/><text text-anchor="middle" pointer-events="none" font-size="8px" fill="#000000" x="48.86729437336384" y="23.253402055527083" font-family="sans-serif">WROTE</text></g><g class="relationship" transform="translate(-63.251912037746706 98.94881160924466) rotate(432.52194431970247)"><path class="outline" fill="#A5ABB6" stroke="none" d="M 25 0.5 L 27.645353041540282 0.5 L 27.645353041540282 -0.5 L 25 -0.5 Z M 70.53597804154029 0.5 L 73.18133108308056 0.5 L 73.18133108308056 3.5 L 80.18133108308056 0 L 73.18133108308056 -3.5 L 73.18133108308056 -0.5 L 70.53597804154029 -0.5 Z"/><text text-anchor="middle" pointer-events="none" font-size="8px" fill="#000000" x="49.09066554154028" y="3" font-family="sans-serif">PRODU…</text></g><g class="relationship" transform="translate(-63.251912037746706 98.94881160924466) rotate(432.52194431970247)"><path class="outline" fill="#A5ABB6" stroke="none" d="M 21.40063509461097,-12.933012701892217 L 21.90063509461097,-12.06698729810778 A 57.586612038521004 57.586612038521004 0 0 1 26.42222240585421,-14.417176285598295 L 26.000740435500035,-15.324013067310617 A 58.586612038521004 58.586612038521004 0 0 0 21.40063509461097,-12.933012701892217 Z M 71.99849751279156,-16.77121795457633 L 71.63485545093428,-15.839679200230492 A 57.586612038521004 57.586612038521004 0 0 1 76.29523931361254,-13.778378071669803 L 74.96152837142606,-11.091146201753839 L 82.7877321671142,-11.114257851554006 L 78.07352056986119,-17.361353898224422 L 76.7398096276747,-14.674122028308457 A 58.586612038521004 58.586612038521004 0 0 0 71.99849751279156,-16.77121795457633"/><text text-anchor="middle" pointer-events="none" font-size="8px" fill="#000000" x="48.86729437336385" y="-17.253402055527083" font-family="sans-serif">DIRECTED</text></g></g><g class="layer nodes"><g class="node" transform="translate(152.1222334014357,259.3084798308251)"><circle class="outline" cx="0" cy="0" r="25" fill="#F79767" stroke="#f36924" stroke-width="2px"/><text text-anchor="middle" pointer-events="none" font-family="sans-serif" dy="1.5625" font-size="25" fill="#FFFFFF"/><text text-anchor="middle" pointer-events="none" font-family="sans-serif" dy="1.5625" font-size="25" fill="#FFFFFF"/><text text-anchor="middle" pointer-events="none" y="0" font-size="10px" fill="#FFFFFF" font-family="sans-serif"> Lilly</text><text text-anchor="middle" pointer-events="none" y="10" font-size="10px" fill="#FFFFFF" font-family="sans-serif"> Wacho…</text></g><g class="node" transform="translate(212.837992674944,174.62692005346491)"><circle class="outline" cx="0" cy="0" r="25" fill="#57C7E3" stroke="#23b3d7" stroke-width="2px"/><text text-anchor="middle" pointer-events="none" font-family="sans-serif" dy="1.5625" font-size="25" fill="#FFFFFF"/><text text-anchor="middle" pointer-events="none" font-family="sans-serif" dy="1.5625" font-size="25" fill="#FFFFFF"/><text text-anchor="middle" pointer-events="none" y="0" font-size="10px" fill="#FFFFFF" font-family="sans-serif"> Speed</text><text text-anchor="middle" pointer-events="none" y="10" font-size="10px" fill="#FFFFFF" font-family="sans-serif"> Racer</text></g><g class="node" transform="translate(258.4413534912146,80.8511388269661)"><circle class="outline" cx="0" cy="0" r="25" fill="#F79767" stroke="#f36924" stroke-width="2px"/><text text-anchor="middle" pointer-events="none" font-family="sans-serif" dy="1.5625" font-size="25" fill="#FFFFFF"/><text text-anchor="middle" pointer-events="none" font-family="sans-serif" dy="1.5625" font-size="25" fill="#FFFFFF"/><text text-anchor="middle" pointer-events="none" y="0" font-size="10px" fill="#FFFFFF" font-family="sans-serif"> Lana</text><text text-anchor="middle" pointer-events="none" y="10" font-size="10px" fill="#FFFFFF" font-family="sans-serif"> Wacho…</text></g><g class="node" transform="translate(143.16312852662236,-53.77282476490976)"><circle class="outline" cx="0" cy="0" r="25" fill="#F79767" stroke="#f36924" stroke-width="2px"/><text text-anchor="middle" pointer-events="none" font-family="sans-serif" dy="1.5625" font-size="25" fill="#FFFFFF"/><text text-anchor="middle" pointer-events="none" font-family="sans-serif" dy="1.5625" font-size="25" fill="#FFFFFF"/><text text-anchor="middle" pointer-events="none" y="0" font-size="10px" fill="#FFFFFF" font-family="sans-serif"> Cameron</text><text text-anchor="middle" pointer-events="none" y="10" font-size="10px" fill="#FFFFFF" font-family="sans-serif"> Crowe</text></g><g class="node" transform="translate(39.28470174292179,-44.22919267998865)"><circle class="outline" cx="0" cy="0" r="25" fill="#57C7E3" stroke="#23b3d7" stroke-width="2px"/><text text-anchor="middle" pointer-events="none" font-family="sans-serif" dy="1.5625" font-size="25" fill="#FFFFFF"/><text text-anchor="middle" pointer-events="none" font-family="sans-serif" dy="1.5625" font-size="25" fill="#FFFFFF"/><text text-anchor="middle" pointer-events="none" y="0" font-size="10px" fill="#FFFFFF" font-family="sans-serif"> Jerry</text><text text-anchor="middle" pointer-events="none" y="10" font-size="10px" fill="#FFFFFF" font-family="sans-serif"> Maguire</text></g><g class="node" transform="translate(-63.251912037746706,98.94881160924466)"><circle class="outline" cx="0" cy="0" r="25" fill="#F79767" stroke="#f36924" stroke-width="2px"/><text text-anchor="middle" pointer-events="none" font-family="sans-serif" dy="1.5625" font-size="25" fill="#FFFFFF"/><text text-anchor="middle" pointer-events="none" font-family="sans-serif" dy="1.5625" font-size="25" fill="#FFFFFF"/><text text-anchor="middle" pointer-events="none" y="0" font-size="10px" fill="#FFFFFF" font-family="sans-serif"> Nancy</text><text text-anchor="middle" pointer-events="none" y="10" font-size="10px" fill="#FFFFFF" font-family="sans-serif"> Meyers</text></g><g class="node" transform="translate(-31.661698126259964,199.27413639533802)"><circle class="outline" cx="0" cy="0" r="25" fill="#57C7E3" stroke="#23b3d7" stroke-width="2px"/><text text-anchor="middle" pointer-events="none" font-family="sans-serif" dy="1.5625" font-size="25" fill="#FFFFFF"/><text text-anchor="middle" pointer-events="none" y="5" font-size="10px" fill="#FFFFFF" font-family="sans-serif"> Somethi…</text></g></g></svg>