<svg xmlns="http://www.w3.org/2000/svg" width="273.34002685546875" height="444.7351379394531" viewBox="-47.31217956542969 -99.4918441772461 273.34002685546875 444.7351379394531"><title>Neo4j Graph Visualization</title><desc>Created using Neo4j (http://www.neo4j.com/)</desc><g class="layer relationships"><g class="relationship" transform="translate(84.73280161777431 316.24328108928796) rotate(246.35407375113869)"><path class="outline" fill="#A5ABB6" stroke="none" d="M 25 0.5 L 30.355767916459115 0.5 L 30.355767916459115 -0.5 L 25 -0.5 Z M 77.24639291645911 0.5 L 82.60216083291823 0.5 L 82.60216083291823 3.5 L 89.60216083291823 0 L 82.60216083291823 -3.5 L 82.60216083291823 -0.5 L 77.24639291645911 -0.5 Z"/><text text-anchor="middle" pointer-events="none" font-size="8px" fill="#000000" x="53.801080416459115" y="3" transform="rotate(180 53.801080416459115 0)" font-family="sans-serif">DIRECTED</text></g><g class="relationship" transform="translate(116.61951004888437 146.63881377647942) rotate(500.3041948137833)"><path class="outline" fill="#A5ABB6" stroke="none" d="M 25 0.5 L 26.532811778610366 0.5 L 26.532811778610366 -0.5 L 25 -0.5 Z M 67.64609302861037 0.5 L 69.17890480722073 0.5 L 69.17890480722073 3.5 L 76.17890480722073 0 L 69.17890480722073 -3.5 L 69.17890480722073 -0.5 L 67.64609302861037 -0.5 Z"/><text text-anchor="middle" pointer-events="none" font-size="8px" fill="#000000" x="47.089452403610366" y="3" transform="rotate(180 47.089452403610366 0)" font-family="sans-serif">ACTED…</text></g><g class="relationship" transform="translate(116.61951004888437 146.63881377647942) rotate(276.1065695751408)"><path class="outline" fill="#A5ABB6" stroke="none" d="M 25 0.5 L 34.289515707397356 0.5 L 34.289515707397356 -0.5 L 25 -0.5 Z M 79.85201570739736 0.5 L 89.14153141479471 0.5 L 89.14153141479471 3.5 L 96.14153141479471 0 L 89.14153141479471 -3.5 L 89.14153141479471 -0.5 L 79.85201570739736 -0.5 Z"/><text text-anchor="middle" pointer-events="none" font-size="8px" fill="#000000" x="57.070765707397356" y="3" font-family="sans-serif">ACTED_IN</text></g><g class="relationship" transform="translate(116.61951004888437 146.63881377647942) rotate(307.899094781047)"><path class="outline" fill="#A5ABB6" stroke="none" d="M 25 0.5 L 25.956455773152115 0.5 L 25.956455773152115 -0.5 L 25 -0.5 Z M 51.069737023152115 0.5 L 52.02619279630423 0.5 L 52.02619279630423 3.5 L 59.02619279630423 0 L 52.02619279630423 -3.5 L 52.02619279630423 -0.5 L 51.069737023152115 -0.5 Z"/><text text-anchor="middle" pointer-events="none" font-size="8px" fill="#000000" x="38.513096398152115" y="3" font-family="sans-serif">AC…</text></g><g class="relationship" transform="translate(116.61951004888437 146.63881377647942) rotate(250.0331096622291)"><path class="outline" fill="#A5ABB6" stroke="none" d="M 25 0.5 L 47.675431993705814 0.5 L 47.675431993705814 -0.5 L 25 -0.5 Z M 93.23793199370581 0.5 L 115.91336398741163 0.5 L 115.91336398741163 3.5 L 122.91336398741163 0 L 115.91336398741163 -3.5 L 115.91336398741163 -0.5 L 93.23793199370581 -0.5 Z"/><text text-anchor="middle" pointer-events="none" font-size="8px" fill="#000000" x="70.45668199370581" y="3" transform="rotate(180 70.45668199370581 0)" font-family="sans-serif">ACTED_IN</text></g><g class="relationship" transform="translate(116.61951004888437 146.63881377647942) rotate(530.8708153934168)"><path class="outline" fill="#A5ABB6" stroke="none" d="M 25 0.5 L 42.050140827608075 0.5 L 42.050140827608075 -0.5 L 25 -0.5 Z M 87.61264082760808 0.5 L 104.66278165521615 0.5 L 104.66278165521615 3.5 L 111.66278165521615 0 L 104.66278165521615 -3.5 L 104.66278165521615 -0.5 L 87.61264082760808 -0.5 Z"/><text text-anchor="middle" pointer-events="none" font-size="8px" fill="#000000" x="64.83139082760808" y="3" transform="rotate(180 64.83139082760808 0)" font-family="sans-serif">ACTED_IN</text></g><g class="relationship" transform="translate(68.00921610308315 111.49546353710143) rotate(342.7289295556816)"><path class="outline" fill="#A5ABB6" stroke="none" d="M 25 0.5 L 25.533563124740702 0.5 L 25.533563124740702 -0.5 L 25 -0.5 Z M 72.42418812474071 0.5 L 72.9577512494814 0.5 L 72.9577512494814 3.5 L 79.9577512494814 0 L 72.9577512494814 -3.5 L 72.9577512494814 -0.5 L 72.42418812474071 -0.5 Z"/><text text-anchor="middle" pointer-events="none" font-size="8px" fill="#000000" x="48.9788756247407" y="3" font-family="sans-serif">DIRECTED</text></g><g class="relationship" transform="translate(68.00921610308315 111.49546353710143) rotate(466.3356461794876)"><path class="outline" fill="#A5ABB6" stroke="none" d="M 25 0.5 L 25.036924272756885 0.5 L 25.036924272756885 -0.5 L 25 -0.5 Z M 71.92754927275689 0.5 L 71.96447354551377 0.5 L 71.96447354551377 3.5 L 78.96447354551377 0 L 71.96447354551377 -3.5 L 71.96447354551377 -0.5 L 71.92754927275689 -0.5 Z"/><text text-anchor="middle" pointer-events="none" font-size="8px" fill="#000000" x="48.482236772756885" y="3" transform="rotate(180 48.482236772756885 0)" font-family="sans-serif">DIRECTED</text></g><g class="relationship" transform="translate(68.00921610308315 111.49546353710143) rotate(305.7863072299232)"><path class="outline" fill="#A5ABB6" stroke="none" d="M 24.018736134675446,6.953439040707552 L 24.277555179777966,5.987513214418485 A 102.03379323890357 102.03379323890357 0 0 0 25.095254911255346,6.202987542638539 L 24.844449875095556,7.1710251626910235 A 103.03379323890357 103.03379323890357 0 0 1 24.018736134675446,6.953439040707552 Z M 73.28560148998606,7.95512824583291 L 73.06625833406125,6.979480471301073 A 102.03379323890357 102.03379323890357 0 0 0 73.89050350280743,6.790583836131135 L 73.2082395591035,3.8691944558667433 L 80.82078938070833,5.685532864199375 L 74.80018876107934,10.685769676483657 L 74.11792481737541,7.764380296219266 A 103.03379323890357 103.03379323890357 0 0 1 73.28560148998606,7.95512824583291"/><text text-anchor="middle" pointer-events="none" font-size="8px" fill="#000000" x="49.02637627755703" y="12.95080062334523" font-family="sans-serif">PRODUC…</text></g><g class="relationship" transform="translate(68.00921610308315 111.49546353710143) rotate(506.6426135050673)"><path class="outline" fill="#A5ABB6" stroke="none" d="M 25 0.5 L 26.284879623775396 0.5 L 26.284879623775396 -0.5 L 25 -0.5 Z M 70.0622233737754 0.5 L 71.34710299755079 0.5 L 71.34710299755079 3.5 L 78.34710299755079 0 L 71.34710299755079 -3.5 L 71.34710299755079 -0.5 L 70.0622233737754 -0.5 Z"/><text text-anchor="middle" pointer-events="none" font-size="8px" fill="#000000" x="48.173551498775396" y="3" transform="rotate(180 48.173551498775396 0)" font-family="sans-serif">DIRECT…</text></g><g class="relationship" transform="translate(68.00921610308315 111.49546353710143) rotate(305.7863072299232)"><path class="outline" fill="#A5ABB6" stroke="none" d="M 24.018736134675446,-6.953439040707552 L 24.277555179777966,-5.987513214418485 A 102.03379323890357 102.03379323890357 0 0 1 31.352497508632933,-7.6158486424223355 L 31.163017670711405,-8.597733254289338 A 103.03379323890357 103.03379323890357 0 0 0 24.018736134675446,-6.953439040707552 Z M 66.92416854519507,-9.17658878770662 L 66.76656661751021,-8.189086062449618 A 102.03379323890357 102.03379323890357 0 0 1 73.89050350280743,-6.790583836131135 L 73.2082395591035,-3.8691944558667433 L 80.82078938070833,-5.685532864199375 L 74.80018876107934,-10.685769676483657 L 74.11792481737541,-7.764380296219266 A 103.03379323890357 103.03379323890357 0 0 0 66.92416854519507,-9.17658878770662"/><text text-anchor="middle" pointer-events="none" font-size="8px" fill="#000000" x="49.026376277557" y="-6.950800623345231" font-family="sans-serif">WROTE</text></g><g class="relationship" transform="translate(68.00921610308315 111.49546353710143) rotate(268.9528490835864)"><path class="outline" fill="#A5ABB6" stroke="none" d="M 25 0.5 L 25.002841839271817 0.5 L 25.002841839271817 -0.5 L 25 -0.5 Z M 71.89346683927181 0.5 L 71.89630867854363 0.5 L 71.89630867854363 3.5 L 78.89630867854363 0 L 71.89630867854363 -3.5 L 71.89630867854363 -0.5 L 71.89346683927181 -0.5 Z"/><text text-anchor="middle" pointer-events="none" font-size="8px" fill="#000000" x="48.44815433927182" y="3" transform="rotate(180 48.44815433927182 0)" font-family="sans-serif">DIRECTED</text></g><g class="relationship" transform="translate(17.920785153212588 78.47852399201895) rotate(334.8901588235135)"><path class="outline" fill="#A5ABB6" stroke="none" d="M 24.018736134675446,6.953439040707552 L 24.277555179777966,5.987513214418485 A 138.0085387414257 138.0085387414257 0 0 0 32.46232771985002,7.915409738379964 L 32.26281495111788,8.895304964979658 A 139.0085387414257 139.0085387414257 0 0 1 24.018736134675446,6.953439040707552 Z M 83.92386609450021,9.61531400217197 L 83.75173945452322,8.630239172623334 A 138.0085387414257 138.0085387414257 0 0 0 91.98706133352009,6.931192354806409 L 91.29166375379577,4.012901381288934 L 98.91230653501492,5.7949798310359295 L 92.91425810648585,10.822246986163043 L 92.21886052676153,7.903956012645567 A 139.0085387414257 139.0085387414257 0 0 1 83.92386609450021,9.61531400217197"/><text text-anchor="middle" pointer-events="none" font-size="8px" fill="#000000" x="58.06656330534049" y="14.176589814326945" font-family="sans-serif">PRODUCED</text></g><g class="relationship" transform="translate(17.920785153212588 78.47852399201895) rotate(441.0774672852601)"><path class="outline" fill="#A5ABB6" stroke="none" d="M 25 0.5 L 40.260153635648706 0.5 L 40.260153635648706 -0.5 L 25 -0.5 Z M 87.1507786356487 0.5 L 102.41093227129741 0.5 L 102.41093227129741 3.5 L 109.41093227129741 0 L 102.41093227129741 -3.5 L 102.41093227129741 -0.5 L 87.1507786356487 -0.5 Z"/><text text-anchor="middle" pointer-events="none" font-size="8px" fill="#000000" x="63.705466135648706" y="3" font-family="sans-serif">DIRECTED</text></g><g class="relationship" transform="translate(17.920785153212588 78.47852399201895) rotate(360.7073261812301)"><path class="outline" fill="#A5ABB6" stroke="none" d="M 25 0.5 L 48.217276942675014 0.5 L 48.217276942675014 -0.5 L 25 -0.5 Z M 95.10790194267501 0.5 L 118.32517888535003 0.5 L 118.32517888535003 3.5 L 125.32517888535003 0 L 118.32517888535003 -3.5 L 118.32517888535003 -0.5 L 95.10790194267501 -0.5 Z"/><text text-anchor="middle" pointer-events="none" font-size="8px" fill="#000000" x="71.66258944267501" y="3" font-family="sans-serif">DIRECTED</text></g><g class="relationship" transform="translate(17.920785153212588 78.47852399201895) rotate(471.9637513471256)"><path class="outline" fill="#A5ABB6" stroke="none" d="M 25 0.5 L 25.49189998605894 0.5 L 25.49189998605894 -0.5 L 25 -0.5 Z M 64.38252498605894 0.5 L 64.87442497211788 0.5 L 64.87442497211788 3.5 L 71.87442497211788 0 L 64.87442497211788 -3.5 L 64.87442497211788 -0.5 L 64.38252498605894 -0.5 Z"/><text text-anchor="middle" pointer-events="none" font-size="8px" fill="#000000" x="44.93721248605894" y="3" transform="rotate(180 44.93721248605894 0)" font-family="sans-serif">DIREC…</text></g><g class="relationship" transform="translate(17.920785153212588 78.47852399201895) rotate(304.2176546628642)"><path class="outline" fill="#A5ABB6" stroke="none" d="M 25 0.5 L 25.458945087067292 0.5 L 25.458945087067292 -0.5 L 25 -0.5 Z M 53.23628883706729 0.5 L 53.695233924134584 0.5 L 53.695233924134584 3.5 L 60.695233924134584 0 L 53.695233924134584 -3.5 L 53.695233924134584 -0.5 L 53.23628883706729 -0.5 Z"/><text text-anchor="middle" pointer-events="none" font-size="8px" fill="#000000" x="39.34761696206729" y="3" font-family="sans-serif">DIR…</text></g><g class="relationship" transform="translate(17.920785153212588 78.47852399201895) rotate(334.8901588235135)"><path class="outline" fill="#A5ABB6" stroke="none" d="M 24.018736134675446,-6.953439040707552 L 24.277555179777966,-5.987513214418485 A 138.0085387414257 138.0085387414257 0 0 1 40.31861611320465,-9.279913189118673 L 40.176029448212184,-10.26969551011976 A 139.0085387414257 139.0085387414257 0 0 0 24.018736134675446,-6.953439040707552 Z M 75.97542240295337,-10.76863786384527 L 75.86047529858989,-9.775266249997543 A 138.0085387414257 138.0085387414257 0 0 1 91.98706133352009,-6.931192354806409 L 91.29166375379577,-4.012901381288934 L 98.91230653501492,-5.7949798310359295 L 92.91425810648585,-10.822246986163043 L 92.21886052676153,-7.903956012645567 A 139.0085387414257 139.0085387414257 0 0 0 75.97542240295337,-10.76863786384527"/><text text-anchor="middle" pointer-events="none" font-size="8px" fill="#000000" x="58.06656330534043" y="-8.176589814326945" font-family="sans-serif">WROTE</text></g><g class="relationship" transform="translate(197.02786617026263 -70.49184114147495) rotate(484.93151482724454)"><path class="outline" fill="#A5ABB6" stroke="none" d="M 25 0.5 L 32.015495884843695 0.5 L 32.015495884843695 -0.5 L 25 -0.5 Z M 78.90612088484369 0.5 L 85.92161676968739 0.5 L 85.92161676968739 3.5 L 92.92161676968739 0 L 85.92161676968739 -3.5 L 85.92161676968739 -0.5 L 78.90612088484369 -0.5 Z"/><text text-anchor="middle" pointer-events="none" font-size="8px" fill="#000000" x="55.460808384843695" y="3" transform="rotate(180 55.460808384843695 0)" font-family="sans-serif">DIRECTED</text></g></g><g class="layer nodes"><g class="node" transform="translate(84.73280161777431,316.24328108928796)"><circle class="outline" cx="0" cy="0" r="25" fill="#F79767" stroke="#f36924" stroke-width="2px"/><text text-anchor="middle" pointer-events="none" font-family="sans-serif" dy="1.5625" font-size="25" fill="#FFFFFF"/><text text-anchor="middle" pointer-events="none" font-family="sans-serif" dy="1.5625" font-size="25" fill="#FFFFFF"/><text text-anchor="middle" pointer-events="none" y="0" font-size="10px" fill="#FFFFFF" font-family="sans-serif"> Tom</text><text text-anchor="middle" pointer-events="none" y="10" font-size="10px" fill="#FFFFFF" font-family="sans-serif"> Tykwer</text></g><g class="node" transform="translate(38.76777415493979,211.26294236857834)"><circle class="outline" cx="0" cy="0" r="25" fill="#57C7E3" stroke="#23b3d7" stroke-width="2px"/><text text-anchor="middle" pointer-events="none" font-family="sans-serif" dy="1.5625" font-size="25" fill="#FFFFFF"/><text text-anchor="middle" pointer-events="none" font-family="sans-serif" dy="1.5625" font-size="25" fill="#FFFFFF"/><text text-anchor="middle" pointer-events="none" y="0" font-size="10px" fill="#FFFFFF" font-family="sans-serif"> Cloud</text><text text-anchor="middle" pointer-events="none" y="10" font-size="10px" fill="#FFFFFF" font-family="sans-serif"> Atlas</text></g><g class="node" transform="translate(116.61951004888437,146.63881377647942)"><circle class="outline" cx="0" cy="0" r="25" fill="#F79767" stroke="#f36924" stroke-width="2px"/><text text-anchor="middle" pointer-events="none" font-family="sans-serif" dy="1.5625" font-size="25" fill="#FFFFFF"/><text text-anchor="middle" pointer-events="none" font-family="sans-serif" dy="1.5625" font-size="25" fill="#FFFFFF"/><text text-anchor="middle" pointer-events="none" y="0" font-size="10px" fill="#FFFFFF" font-family="sans-serif"> Hugo</text><text text-anchor="middle" pointer-events="none" y="10" font-size="10px" fill="#FFFFFF" font-family="sans-serif"> Weaving</text></g><g class="node" transform="translate(68.00921610308315,111.49546353710143)"><circle class="outline" cx="0" cy="0" r="25" fill="#F79767" stroke="#f36924" stroke-width="2px"/><text text-anchor="middle" pointer-events="none" font-family="sans-serif" dy="1.5625" font-size="25" fill="#FFFFFF"/><text text-anchor="middle" pointer-events="none" font-family="sans-serif" dy="1.5625" font-size="25" fill="#FFFFFF"/><text text-anchor="middle" pointer-events="none" y="0" font-size="10px" fill="#FFFFFF" font-family="sans-serif"> Lana</text><text text-anchor="middle" pointer-events="none" y="10" font-size="10px" fill="#FFFFFF" font-family="sans-serif"> Wacho…</text></g><g class="node" transform="translate(17.920785153212588,78.47852399201895)"><circle class="outline" cx="0" cy="0" r="25" fill="#F79767" stroke="#f36924" stroke-width="2px"/><text text-anchor="middle" pointer-events="none" font-family="sans-serif" dy="1.5625" font-size="25" fill="#FFFFFF"/><text text-anchor="middle" pointer-events="none" font-family="sans-serif" dy="1.5625" font-size="25" fill="#FFFFFF"/><text text-anchor="middle" pointer-events="none" y="0" font-size="10px" fill="#FFFFFF" font-family="sans-serif"> Lilly</text><text text-anchor="middle" pointer-events="none" y="10" font-size="10px" fill="#FFFFFF" font-family="sans-serif"> Wacho…</text></g><g class="node" transform="translate(197.02786617026263,-70.49184114147495)"><circle class="outline" cx="0" cy="0" r="25" fill="#F79767" stroke="#f36924" stroke-width="2px"/><text text-anchor="middle" pointer-events="none" font-family="sans-serif" dy="1.5625" font-size="25" fill="#FFFFFF"/><text text-anchor="middle" pointer-events="none" font-family="sans-serif" dy="1.5625" font-size="25" fill="#FFFFFF"/><text text-anchor="middle" pointer-events="none" y="0" font-size="10px" fill="#FFFFFF" font-family="sans-serif"> James</text><text text-anchor="middle" pointer-events="none" y="10" font-size="10px" fill="#FFFFFF" font-family="sans-serif"> Marshall</text></g><g class="node" transform="translate(129.50631382813927,26.18466929868789)"><circle class="outline" cx="0" cy="0" r="25" fill="#57C7E3" stroke="#23b3d7" stroke-width="2px"/><text text-anchor="middle" pointer-events="none" font-family="sans-serif" dy="1.5625" font-size="25" fill="#FFFFFF"/><text text-anchor="middle" pointer-events="none" font-family="sans-serif" dy="1.5625" font-size="25" fill="#FFFFFF"/><text text-anchor="middle" pointer-events="none" y="0" font-size="10px" fill="#FFFFFF" font-family="sans-serif"> V for</text><text text-anchor="middle" pointer-events="none" y="10" font-size="10px" fill="#FFFFFF" font-family="sans-serif"> Vendetta</text></g><g class="node" transform="translate(168.23450916182594,80.33426685537658)"><circle class="outline" cx="0" cy="0" r="25" fill="#57C7E3" stroke="#23b3d7" stroke-width="2px"/><text text-anchor="middle" pointer-events="none" font-family="sans-serif" dy="1.5625" font-size="25" fill="#FFFFFF"/><text text-anchor="middle" pointer-events="none" font-family="sans-serif" dy="1.5625" font-size="25" fill="#FFFFFF"/><text text-anchor="middle" pointer-events="none" font-family="sans-serif" dy="1.5625" font-size="25" fill="#FFFFFF"/><text text-anchor="middle" pointer-events="none" y="-5" font-size="10px" fill="#FFFFFF" font-family="sans-serif"> The</text><text text-anchor="middle" pointer-events="none" y="5" font-size="10px" fill="#FFFFFF" font-family="sans-serif"> Matrix</text><text text-anchor="middle" pointer-events="none" y="15" font-size="10px" fill="#FFFFFF" font-family="sans-serif"> Revol…</text></g><g class="node" transform="translate(66.110488845422,7.616506130761248)"><circle class="outline" cx="0" cy="0" r="25" fill="#57C7E3" stroke="#23b3d7" stroke-width="2px"/><text text-anchor="middle" pointer-events="none" font-family="sans-serif" dy="1.5625" font-size="25" fill="#FFFFFF"/><text text-anchor="middle" pointer-events="none" font-family="sans-serif" dy="1.5625" font-size="25" fill="#FFFFFF"/><text text-anchor="middle" pointer-events="none" font-family="sans-serif" dy="1.5625" font-size="25" fill="#FFFFFF"/><text text-anchor="middle" pointer-events="none" y="-5" font-size="10px" fill="#FFFFFF" font-family="sans-serif"> The</text><text text-anchor="middle" pointer-events="none" y="5" font-size="10px" fill="#FFFFFF" font-family="sans-serif"> Matrix</text><text text-anchor="middle" pointer-events="none" y="15" font-size="10px" fill="#FFFFFF" font-family="sans-serif"> Reloa…</text></g><g class="node" transform="translate(-18.312180288802786,168.321867813118)"><circle class="outline" cx="0" cy="0" r="25" fill="#57C7E3" stroke="#23b3d7" stroke-width="2px"/><text text-anchor="middle" pointer-events="none" font-family="sans-serif" dy="1.5625" font-size="25" fill="#FFFFFF"/><text text-anchor="middle" pointer-events="none" font-family="sans-serif" dy="1.5625" font-size="25" fill="#FFFFFF"/><text text-anchor="middle" pointer-events="none" y="0" font-size="10px" fill="#FFFFFF" font-family="sans-serif"> The</text><text text-anchor="middle" pointer-events="none" y="10" font-size="10px" fill="#FFFFFF" font-family="sans-serif"> Matrix</text></g></g></svg>