<svg xmlns="http://www.w3.org/2000/svg" width="557.3287353515625" height="561.3408203125" viewBox="-150.72915649414062 -138.10879516601562 557.3287353515625 561.3408203125"><title>Neo4j Graph Visualization</title><desc>Created using Neo4j (http://www.neo4j.com/)</desc><g class="layer relationships"><g class="relationship" transform="translate(42.58117486005058 394.23206515122575) rotate(359.4859074063688)"><path class="outline" fill="#A5ABB6" stroke="none" d="M 25 0.5 L 28.203966798459547 0.5 L 28.203966798459547 -0.5 L 25 -0.5 Z M 73.76646679845955 0.5 L 76.9704335969191 0.5 L 76.9704335969191 3.5 L 83.9704335969191 0 L 76.9704335969191 -3.5 L 76.9704335969191 -0.5 L 73.76646679845955 -0.5 Z"/><text text-anchor="middle" pointer-events="none" font-size="8px" fill="#000000" x="50.98521679845955" y="3" font-family="sans-serif">ACTED_IN</text></g><g class="relationship" transform="translate(255.99189437575808 359.816492927095) rotate(522.2475951315165)"><path class="outline" fill="#A5ABB6" stroke="none" d="M 25 0.5 L 28.552084942325486 0.5 L 28.552084942325486 -0.5 L 25 -0.5 Z M 74.11458494232548 0.5 L 77.66666988465097 0.5 L 77.66666988465097 3.5 L 84.66666988465097 0 L 77.66666988465097 -3.5 L 77.66666988465097 -0.5 L 74.11458494232548 -0.5 Z"/><text text-anchor="middle" pointer-events="none" font-size="8px" fill="#000000" x="51.333334942325486" y="3" transform="rotate(180 51.333334942325486 0)" font-family="sans-serif">ACTED_IN</text></g><g class="relationship" transform="translate(147.7495189096697 285.7156662958796) rotate(447.9774532670731)"><path class="outline" fill="#A5ABB6" stroke="none" d="M 25 0.5 L 27.52159977759718 0.5 L 27.52159977759718 -0.5 L 25 -0.5 Z M 73.08409977759717 0.5 L 75.60569955519436 0.5 L 75.60569955519436 3.5 L 82.60569955519436 0 L 75.60569955519436 -3.5 L 75.60569955519436 -0.5 L 73.08409977759717 -0.5 Z"/><text text-anchor="middle" pointer-events="none" font-size="8px" fill="#000000" x="50.30284977759718" y="3" font-family="sans-serif">ACTED_IN</text></g><g class="relationship" transform="translate(377.5995885624909 90.90693092444972) rotate(233.61935800345287)"><path class="outline" fill="#A5ABB6" stroke="none" d="M 25 0.5 L 28.920990230130045 0.5 L 28.920990230130045 -0.5 L 25 -0.5 Z M 74.48349023013004 0.5 L 78.40448046026009 0.5 L 78.40448046026009 3.5 L 85.40448046026009 0 L 78.40448046026009 -3.5 L 78.40448046026009 -0.5 L 74.48349023013004 -0.5 Z"/><text text-anchor="middle" pointer-events="none" font-size="8px" fill="#000000" x="51.702240230130045" y="3" transform="rotate(180 51.702240230130045 0)" font-family="sans-serif">ACTED_IN</text></g><g class="relationship" transform="translate(362.62995925167013 -91.20399846819649) rotate(478.45224929371483)"><path class="outline" fill="#A5ABB6" stroke="none" d="M 25 0.5 L 26.73477753089206 0.5 L 26.73477753089206 -0.5 L 25 -0.5 Z M 72.29727753089206 0.5 L 74.03205506178412 0.5 L 74.03205506178412 3.5 L 81.03205506178412 0 L 74.03205506178412 -3.5 L 74.03205506178412 -0.5 L 72.29727753089206 -0.5 Z"/><text text-anchor="middle" pointer-events="none" font-size="8px" fill="#000000" x="49.51602753089206" y="3" transform="rotate(180 49.51602753089206 0)" font-family="sans-serif">ACTED_IN</text></g><g class="relationship" transform="translate(245.94114417861758 84.89240404671989) rotate(308.6071487140889)"><path class="outline" fill="#A5ABB6" stroke="none" d="M 25 0.5 L 26.74342652211591 0.5 L 26.74342652211591 -0.5 L 25 -0.5 Z M 72.30592652211591 0.5 L 74.04935304423182 0.5 L 74.04935304423182 3.5 L 81.04935304423182 0 L 74.04935304423182 -3.5 L 74.04935304423182 -0.5 L 72.30592652211591 -0.5 Z"/><text text-anchor="middle" pointer-events="none" font-size="8px" fill="#000000" x="49.52467652211591" y="3" font-family="sans-serif">ACTED_IN</text></g><g class="relationship" transform="translate(237.3780648484132 -81.38010099857286) rotate(408.13656102789844)"><path class="outline" fill="#A5ABB6" stroke="none" d="M 25 0.5 L 29.71231487798274 0.5 L 29.71231487798274 -0.5 L 25 -0.5 Z M 75.27481487798275 0.5 L 79.98712975596548 0.5 L 79.98712975596548 3.5 L 86.98712975596548 0 L 79.98712975596548 -3.5 L 79.98712975596548 -0.5 L 75.27481487798275 -0.5 Z"/><text text-anchor="middle" pointer-events="none" font-size="8px" fill="#000000" x="52.49356487798274" y="3" font-family="sans-serif">ACTED_IN</text></g><g class="relationship" transform="translate(2.4119260369819315 5.341052672184243) rotate(255.18153070033634)"><path class="outline" fill="#A5ABB6" stroke="none" d="M 25 0.5 L 32.912398727677285 0.5 L 32.912398727677285 -0.5 L 25 -0.5 Z M 78.47489872767729 0.5 L 86.38729745535457 0.5 L 86.38729745535457 3.5 L 93.38729745535457 0 L 86.38729745535457 -3.5 L 86.38729745535457 -0.5 L 78.47489872767729 -0.5 Z"/><text text-anchor="middle" pointer-events="none" font-size="8px" fill="#000000" x="55.693648727677285" y="3" transform="rotate(180 55.693648727677285 0)" font-family="sans-serif">ACTED_IN</text></g><g class="relationship" transform="translate(2.4119260369819315 5.341052672184243) rotate(513.2086175277634)"><path class="outline" fill="#A5ABB6" stroke="none" d="M 25 0.5 L 43.21760245865781 0.5 L 43.21760245865781 -0.5 L 25 -0.5 Z M 88.78010245865781 0.5 L 106.99770491731562 0.5 L 106.99770491731562 3.5 L 113.99770491731562 0 L 106.99770491731562 -3.5 L 106.99770491731562 -0.5 L 88.78010245865781 -0.5 Z"/><text text-anchor="middle" pointer-events="none" font-size="8px" fill="#000000" x="65.99885245865781" y="3" transform="rotate(180 65.99885245865781 0)" font-family="sans-serif">ACTED_IN</text></g><g class="relationship" transform="translate(2.4119260369819315 5.341052672184243) rotate(481.7414700717176)"><path class="outline" fill="#A5ABB6" stroke="none" d="M 25 0.5 L 25.56567020224451 0.5 L 25.56567020224451 -0.5 L 25 -0.5 Z M 66.67895145224452 0.5 L 67.24462165448902 0.5 L 67.24462165448902 3.5 L 74.24462165448902 0 L 67.24462165448902 -3.5 L 67.24462165448902 -0.5 L 66.67895145224452 -0.5 Z"/><text text-anchor="middle" pointer-events="none" font-size="8px" fill="#000000" x="46.12231082724451" y="3" transform="rotate(180 46.12231082724451 0)" font-family="sans-serif">ACTED…</text></g><g class="relationship" transform="translate(-59.688190334995596 -15.745238672900182) rotate(288.82097233668276)"><path class="outline" fill="#A5ABB6" stroke="none" d="M 25 0.5 L 25.262155688716547 0.5 L 25.262155688716547 -0.5 L 25 -0.5 Z M 66.37543693871655 0.5 L 66.6375926274331 0.5 L 66.6375926274331 3.5 L 73.6375926274331 0 L 66.6375926274331 -3.5 L 66.6375926274331 -0.5 L 66.37543693871655 -0.5 Z"/><text text-anchor="middle" pointer-events="none" font-size="8px" fill="#000000" x="45.81879631371655" y="3" font-family="sans-serif">ACTED…</text></g><g class="relationship" transform="translate(-59.688190334995596 -15.745238672900182) rotate(486.5059256387816)"><path class="outline" fill="#A5ABB6" stroke="none" d="M 25 0.5 L 25.80823703063235 0.5 L 25.80823703063235 -0.5 L 25 -0.5 Z M 71.37073703063234 0.5 L 72.1789740612647 0.5 L 72.1789740612647 3.5 L 79.1789740612647 0 L 72.1789740612647 -3.5 L 72.1789740612647 -0.5 L 71.37073703063234 -0.5 Z"/><text text-anchor="middle" pointer-events="none" font-size="8px" fill="#000000" x="48.58948703063235" y="3" transform="rotate(180 48.58948703063235 0)" font-family="sans-serif">ACTED_IN</text></g><g class="relationship" transform="translate(-59.688190334995596 -15.745238672900182) rotate(444.64451005279307)"><path class="outline" fill="#A5ABB6" stroke="none" d="M 25 0.5 L 26.69347179332042 0.5 L 26.69347179332042 -0.5 L 25 -0.5 Z M 72.25597179332041 0.5 L 73.94944358664084 0.5 L 73.94944358664084 3.5 L 80.94944358664084 0 L 73.94944358664084 -3.5 L 73.94944358664084 -0.5 L 72.25597179332041 -0.5 Z"/><text text-anchor="middle" pointer-events="none" font-size="8px" fill="#000000" x="49.47472179332042" y="3" font-family="sans-serif">ACTED_IN</text></g><g class="relationship" transform="translate(-121.72916386548371 -28.224419912532458) rotate(418.62728347216716)"><path class="outline" fill="#A5ABB6" stroke="none" d="M 25 0.5 L 42.801847558234314 0.5 L 42.801847558234314 -0.5 L 25 -0.5 Z M 88.36434755823431 0.5 L 106.16619511646863 0.5 L 106.16619511646863 3.5 L 113.16619511646863 0 L 106.16619511646863 -3.5 L 106.16619511646863 -0.5 L 88.36434755823431 -0.5 Z"/><text text-anchor="middle" pointer-events="none" font-size="8px" fill="#000000" x="65.58309755823431" y="3" font-family="sans-serif">ACTED_IN</text></g><g class="relationship" transform="translate(-121.72916386548371 -28.224419912532458) rotate(449.9617194794627)"><path class="outline" fill="#A5ABB6" stroke="none" d="M 25 0.5 L 26.940919473255825 0.5 L 26.940919473255825 -0.5 L 25 -0.5 Z M 62.276856973255825 0.5 L 64.21777644651165 0.5 L 64.21777644651165 3.5 L 71.21777644651165 0 L 64.21777644651165 -3.5 L 64.21777644651165 -0.5 L 62.276856973255825 -0.5 Z"/><text text-anchor="middle" pointer-events="none" font-size="8px" fill="#000000" x="44.608888223255825" y="3" font-family="sans-serif">ACTE…</text></g><g class="relationship" transform="translate(-121.72916386548371 -28.224419912532458) rotate(319.2474998733961)"><path class="outline" fill="#A5ABB6" stroke="none" d="M 25 0.5 L 35.6713176028377 0.5 L 35.6713176028377 -0.5 L 25 -0.5 Z M 81.2338176028377 0.5 L 91.9051352056754 0.5 L 91.9051352056754 3.5 L 98.9051352056754 0 L 91.9051352056754 -3.5 L 91.9051352056754 -0.5 L 81.2338176028377 -0.5 Z"/><text text-anchor="middle" pointer-events="none" font-size="8px" fill="#000000" x="58.4525676028377" y="3" font-family="sans-serif">ACTED_IN</text></g><g class="relationship" transform="translate(-70.97525783855872 202.3013291284415) rotate(280.6545245886186)"><path class="outline" fill="#A5ABB6" stroke="none" d="M 25 0.5 L 30.98585229321121 0.5 L 30.98585229321121 -0.5 L 25 -0.5 Z M 76.54835229321121 0.5 L 82.53420458642242 0.5 L 82.53420458642242 3.5 L 89.53420458642242 0 L 82.53420458642242 -3.5 L 82.53420458642242 -0.5 L 76.54835229321121 -0.5 Z"/><text text-anchor="middle" pointer-events="none" font-size="8px" fill="#000000" x="53.76710229321121" y="3" font-family="sans-serif">ACTED_IN</text></g></g><g class="layer nodes"><g class="node" transform="translate(42.58117486005058,394.23206515122575)"><circle class="outline" cx="0" cy="0" r="25" fill="#F79767" stroke="#f36924" stroke-width="2px"/><text text-anchor="middle" pointer-events="none" font-family="sans-serif" dy="1.5625" font-size="25" fill="#FFFFFF"/><text text-anchor="middle" pointer-events="none" font-family="sans-serif" dy="1.5625" font-size="25" fill="#FFFFFF"/><text text-anchor="middle" pointer-events="none" y="0" font-size="10px" fill="#FFFFFF" font-family="sans-serif"> Tom</text><text text-anchor="middle" pointer-events="none" y="10" font-size="10px" fill="#FFFFFF" font-family="sans-serif"> Hanks</text></g><g class="node" transform="translate(151.54722200680965,393.25432924064904)"><circle class="outline" cx="0" cy="0" r="25" fill="#57C7E3" stroke="#23b3d7" stroke-width="2px"/><text text-anchor="middle" pointer-events="none" font-family="sans-serif" dy="1.5625" font-size="25" fill="#FFFFFF"/><text text-anchor="middle" pointer-events="none" font-family="sans-serif" dy="1.5625" font-size="25" fill="#FFFFFF"/><text text-anchor="middle" pointer-events="none" y="0" font-size="10px" fill="#FFFFFF" font-family="sans-serif"> Cloud</text><text text-anchor="middle" pointer-events="none" y="10" font-size="10px" fill="#FFFFFF" font-family="sans-serif"> Atlas</text></g><g class="node" transform="translate(255.99189437575808,359.816492927095)"><circle class="outline" cx="0" cy="0" r="25" fill="#F79767" stroke="#f36924" stroke-width="2px"/><text text-anchor="middle" pointer-events="none" font-family="sans-serif" dy="1.5625" font-size="25" fill="#FFFFFF"/><text text-anchor="middle" pointer-events="none" font-family="sans-serif" dy="1.5625" font-size="25" fill="#FFFFFF"/><text text-anchor="middle" pointer-events="none" y="0" font-size="10px" fill="#FFFFFF" font-family="sans-serif"> Jim</text><text text-anchor="middle" pointer-events="none" y="10" font-size="10px" fill="#FFFFFF" font-family="sans-serif"> Broadb…</text></g><g class="node" transform="translate(147.7495189096697,285.7156662958796)"><circle class="outline" cx="0" cy="0" r="25" fill="#F79767" stroke="#f36924" stroke-width="2px"/><text text-anchor="middle" pointer-events="none" font-family="sans-serif" dy="1.5625" font-size="25" fill="#FFFFFF"/><text text-anchor="middle" pointer-events="none" font-family="sans-serif" dy="1.5625" font-size="25" fill="#FFFFFF"/><text text-anchor="middle" pointer-events="none" y="0" font-size="10px" fill="#FFFFFF" font-family="sans-serif"> Halle</text><text text-anchor="middle" pointer-events="none" y="10" font-size="10px" fill="#FFFFFF" font-family="sans-serif"> Berry</text></g><g class="node" transform="translate(377.5995885624909,90.90693092444972)"><circle class="outline" cx="0" cy="0" r="25" fill="#F79767" stroke="#f36924" stroke-width="2px"/><text text-anchor="middle" pointer-events="none" font-family="sans-serif" dy="1.5625" font-size="25" fill="#FFFFFF"/><text text-anchor="middle" pointer-events="none" font-family="sans-serif" dy="1.5625" font-size="25" fill="#FFFFFF"/><text text-anchor="middle" pointer-events="none" y="0" font-size="10px" fill="#FFFFFF" font-family="sans-serif"> Natalie</text><text text-anchor="middle" pointer-events="none" y="10" font-size="10px" fill="#FFFFFF" font-family="sans-serif"> Portman</text></g><g class="node" transform="translate(312.1135120611734,2.020919144397714)"><circle class="outline" cx="0" cy="0" r="25" fill="#57C7E3" stroke="#23b3d7" stroke-width="2px"/><text text-anchor="middle" pointer-events="none" font-family="sans-serif" dy="1.5625" font-size="25" fill="#FFFFFF"/><text text-anchor="middle" pointer-events="none" font-family="sans-serif" dy="1.5625" font-size="25" fill="#FFFFFF"/><text text-anchor="middle" pointer-events="none" y="0" font-size="10px" fill="#FFFFFF" font-family="sans-serif"> V for</text><text text-anchor="middle" pointer-events="none" y="10" font-size="10px" fill="#FFFFFF" font-family="sans-serif"> Vendetta</text></g><g class="node" transform="translate(362.62995925167013,-91.20399846819649)"><circle class="outline" cx="0" cy="0" r="25" fill="#F79767" stroke="#f36924" stroke-width="2px"/><text text-anchor="middle" pointer-events="none" font-family="sans-serif" dy="1.5625" font-size="25" fill="#FFFFFF"/><text text-anchor="middle" pointer-events="none" font-family="sans-serif" dy="1.5625" font-size="25" fill="#FFFFFF"/><text text-anchor="middle" pointer-events="none" y="0" font-size="10px" fill="#FFFFFF" font-family="sans-serif"> Stephen</text><text text-anchor="middle" pointer-events="none" y="10" font-size="10px" fill="#FFFFFF" font-family="sans-serif"> Rea</text></g><g class="node" transform="translate(245.94114417861758,84.89240404671989)"><circle class="outline" cx="0" cy="0" r="25" fill="#F79767" stroke="#f36924" stroke-width="2px"/><text text-anchor="middle" pointer-events="none" font-family="sans-serif" dy="1.5625" font-size="25" fill="#FFFFFF"/><text text-anchor="middle" pointer-events="none" y="5" font-size="10px" fill="#FFFFFF" font-family="sans-serif"> John Hurt</text></g><g class="node" transform="translate(237.3780648484132,-81.38010099857286)"><circle class="outline" cx="0" cy="0" r="25" fill="#F79767" stroke="#f36924" stroke-width="2px"/><text text-anchor="middle" pointer-events="none" font-family="sans-serif" dy="1.5625" font-size="25" fill="#FFFFFF"/><text text-anchor="middle" pointer-events="none" y="5" font-size="10px" fill="#FFFFFF" font-family="sans-serif"> Ben Miles</text></g><g class="node" transform="translate(2.4119260369819315,5.341052672184243)"><circle class="outline" cx="0" cy="0" r="25" fill="#F79767" stroke="#f36924" stroke-width="2px"/><text text-anchor="middle" pointer-events="none" font-family="sans-serif" dy="1.5625" font-size="25" fill="#FFFFFF"/><text text-anchor="middle" pointer-events="none" font-family="sans-serif" dy="1.5625" font-size="25" fill="#FFFFFF"/><text text-anchor="middle" pointer-events="none" y="0" font-size="10px" fill="#FFFFFF" font-family="sans-serif"> Keanu</text><text text-anchor="middle" pointer-events="none" y="10" font-size="10px" fill="#FFFFFF" font-family="sans-serif"> Reeves</text></g><g class="node" transform="translate(-27.86650138457191,-109.1088011139185)"><circle class="outline" cx="0" cy="0" r="25" fill="#57C7E3" stroke="#23b3d7" stroke-width="2px"/><text text-anchor="middle" pointer-events="none" font-family="sans-serif" dy="1.5625" font-size="25" fill="#FFFFFF"/><text text-anchor="middle" pointer-events="none" font-family="sans-serif" dy="1.5625" font-size="25" fill="#FFFFFF"/><text text-anchor="middle" pointer-events="none" font-family="sans-serif" dy="1.5625" font-size="25" fill="#FFFFFF"/><text text-anchor="middle" pointer-events="none" y="-5" font-size="10px" fill="#FFFFFF" font-family="sans-serif"> The</text><text text-anchor="middle" pointer-events="none" y="5" font-size="10px" fill="#FFFFFF" font-family="sans-serif"> Matrix</text><text text-anchor="middle" pointer-events="none" y="15" font-size="10px" fill="#FFFFFF" font-family="sans-serif"> Revol…</text></g><g class="node" transform="translate(-59.688190334995596,-15.745238672900182)"><circle class="outline" cx="0" cy="0" r="25" fill="#F79767" stroke="#f36924" stroke-width="2px"/><text text-anchor="middle" pointer-events="none" font-family="sans-serif" dy="1.5625" font-size="25" fill="#FFFFFF"/><text text-anchor="middle" pointer-events="none" y="5" font-size="10px" fill="#FFFFFF" font-family="sans-serif"> Carrie-A…</text></g><g class="node" transform="translate(-121.72916386548371,-28.224419912532458)"><circle class="outline" cx="0" cy="0" r="25" fill="#F79767" stroke="#f36924" stroke-width="2px"/><text text-anchor="middle" pointer-events="none" font-family="sans-serif" dy="1.5625" font-size="25" fill="#FFFFFF"/><text text-anchor="middle" pointer-events="none" font-family="sans-serif" dy="1.5625" font-size="25" fill="#FFFFFF"/><text text-anchor="middle" pointer-events="none" y="0" font-size="10px" fill="#FFFFFF" font-family="sans-serif"> Laurence</text><text text-anchor="middle" pointer-events="none" y="10" font-size="10px" fill="#FFFFFF" font-family="sans-serif"> Fishbur…</text></g><g class="node" transform="translate(-121.66487874143814,67.99333505885376)"><circle class="outline" cx="0" cy="0" r="25" fill="#57C7E3" stroke="#23b3d7" stroke-width="2px"/><text text-anchor="middle" pointer-events="none" font-family="sans-serif" dy="1.5625" font-size="25" fill="#FFFFFF"/><text text-anchor="middle" pointer-events="none" font-family="sans-serif" dy="1.5625" font-size="25" fill="#FFFFFF"/><text text-anchor="middle" pointer-events="none" font-family="sans-serif" dy="1.5625" font-size="25" fill="#FFFFFF"/><text text-anchor="middle" pointer-events="none" y="-5" font-size="10px" fill="#FFFFFF" font-family="sans-serif"> The</text><text text-anchor="middle" pointer-events="none" y="5" font-size="10px" fill="#FFFFFF" font-family="sans-serif"> Matrix</text><text text-anchor="middle" pointer-events="none" y="15" font-size="10px" fill="#FFFFFF" font-family="sans-serif"> Reloa…</text></g><g class="node" transform="translate(-70.97525783855872,202.3013291284415)"><circle class="outline" cx="0" cy="0" r="25" fill="#F79767" stroke="#f36924" stroke-width="2px"/><text text-anchor="middle" pointer-events="none" font-family="sans-serif" dy="1.5625" font-size="25" fill="#FFFFFF"/><text text-anchor="middle" pointer-events="none" font-family="sans-serif" dy="1.5625" font-size="25" fill="#FFFFFF"/><text text-anchor="middle" pointer-events="none" y="0" font-size="10px" fill="#FFFFFF" font-family="sans-serif"> Emil</text><text text-anchor="middle" pointer-events="none" y="10" font-size="10px" fill="#FFFFFF" font-family="sans-serif"> Eifrem</text></g><g class="node" transform="translate(-49.79941112760177,89.7417114304477)"><circle class="outline" cx="0" cy="0" r="25" fill="#57C7E3" stroke="#23b3d7" stroke-width="2px"/><text text-anchor="middle" pointer-events="none" font-family="sans-serif" dy="1.5625" font-size="25" fill="#FFFFFF"/><text text-anchor="middle" pointer-events="none" font-family="sans-serif" dy="1.5625" font-size="25" fill="#FFFFFF"/><text text-anchor="middle" pointer-events="none" y="0" font-size="10px" fill="#FFFFFF" font-family="sans-serif"> The</text><text text-anchor="middle" pointer-events="none" y="10" font-size="10px" fill="#FFFFFF" font-family="sans-serif"> Matrix</text></g></g></svg>