<svg xmlns="http://www.w3.org/2000/svg" width="205.25123596191406" height="190.4459228515625" viewBox="6.284442901611328 12.345172882080078 205.25123596191406 190.4459228515625"><title>Neo4j Graph Visualization</title><desc>Created using Neo4j (http://www.neo4j.com/)</desc><g class="layer relationships"><g class="relationship" transform="translate(73.19043358532494 173.79109302083285) rotate(353.47035917135577)"><path class="outline" fill="#A5ABB6" stroke="none" d="M 25 0.5 L 28.748346786164788 0.5 L 28.748346786164788 -0.5 L 25 -0.5 Z M 74.31084678616479 0.5 L 78.05919357232958 0.5 L 78.05919357232958 3.5 L 85.05919357232958 0 L 78.05919357232958 -3.5 L 78.05919357232958 -0.5 L 74.31084678616479 -0.5 Z"/><text text-anchor="middle" pointer-events="none" font-size="8px" fill="#000000" x="51.52959678616479" y="3" font-family="sans-serif">ACTED_IN</text></g><g class="relationship" transform="translate(73.19043358532494 173.79109302083285) rotate(269.15202448869127)"><path class="outline" fill="#A5ABB6" stroke="none" d="M 25 0.5 L 39.94896414435354 0.5 L 39.94896414435354 -0.5 L 25 -0.5 Z M 85.51146414435354 0.5 L 100.46042828870708 0.5 L 100.46042828870708 3.5 L 107.46042828870708 0 L 100.46042828870708 -3.5 L 100.46042828870708 -0.5 L 85.51146414435354 -0.5 Z"/><text text-anchor="middle" pointer-events="none" font-size="8px" fill="#000000" x="62.73021414435354" y="3" transform="rotate(180 62.73021414435354 0)" font-family="sans-serif">ACTED_IN</text></g><g class="relationship" transform="translate(73.19043358532494 173.79109302083285) rotate(245.8548831250577)"><path class="outline" fill="#A5ABB6" stroke="none" d="M 25 0.5 L 25.166305540365997 0.5 L 25.166305540365997 -0.5 L 25 -0.5 Z M 60.502243040366 0.5 L 60.66854858073199 0.5 L 60.66854858073199 3.5 L 67.668548580732 0 L 60.66854858073199 -3.5 L 60.66854858073199 -0.5 L 60.502243040366 -0.5 Z"/><text text-anchor="middle" pointer-events="none" font-size="8px" fill="#000000" x="42.834274290366" y="3" transform="rotate(180 42.834274290366 0)" font-family="sans-serif">ACTE…</text></g><g class="relationship" transform="translate(162.85541769075297 52.9872905485496) rotate(439.6995002884255)"><path class="outline" fill="#A5ABB6" stroke="none" d="M 25 0.5 L 28.749747657165763 0.5 L 28.749747657165763 -0.5 L 25 -0.5 Z M 74.31224765716576 0.5 L 78.06199531433153 0.5 L 78.06199531433153 3.5 L 85.06199531433153 0 L 78.06199531433153 -3.5 L 78.06199531433153 -0.5 L 74.31224765716576 -0.5 Z"/><text text-anchor="middle" pointer-events="none" font-size="8px" fill="#000000" x="51.53099765716576" y="3" font-family="sans-serif">ACTED_IN</text></g><g class="relationship" transform="translate(162.85541769075297 52.9872905485496) rotate(187.2413267559371)"><path class="outline" fill="#A5ABB6" stroke="none" d="M 25 0.5 L 25.01303005911555 0.5 L 25.01303005911555 -0.5 L 25 -0.5 Z M 60.34896755911555 0.5 L 60.3619976182311 0.5 L 60.3619976182311 3.5 L 67.3619976182311 0 L 60.3619976182311 -3.5 L 60.3619976182311 -0.5 L 60.34896755911555 -0.5 Z"/><text text-anchor="middle" pointer-events="none" font-size="8px" fill="#000000" x="42.68099880911555" y="3" transform="rotate(180 42.68099880911555 0)" font-family="sans-serif">ACTE…</text></g><g class="relationship" transform="translate(162.85541769075297 52.9872905485496) rotate(524.1402793660684)"><path class="outline" fill="#A5ABB6" stroke="none" d="M 25 0.5 L 40.028402107576966 0.5 L 40.028402107576966 -0.5 L 25 -0.5 Z M 85.59090210757697 0.5 L 100.61930421515393 0.5 L 100.61930421515393 3.5 L 107.61930421515393 0 L 100.61930421515393 -3.5 L 100.61930421515393 -0.5 L 85.59090210757697 -0.5 Z"/><text text-anchor="middle" pointer-events="none" font-size="8px" fill="#000000" x="62.809652107576966" y="3" transform="rotate(180 62.809652107576966 0)" font-family="sans-serif">ACTED_IN</text></g></g><g class="layer nodes"><g class="node" transform="translate(182.5356907013398,161.27546934383963)"><circle class="outline" cx="0" cy="0" r="25" fill="#57C7E3" stroke="#23b3d7" stroke-width="2px"/><text text-anchor="middle" pointer-events="none" font-family="sans-serif" dy="1.5625" font-size="25" fill="#FFFFFF"/><text text-anchor="middle" pointer-events="none" font-family="sans-serif" dy="1.5625" font-size="25" fill="#FFFFFF"/><text text-anchor="middle" pointer-events="none" font-family="sans-serif" dy="1.5625" font-size="25" fill="#FFFFFF"/><text text-anchor="middle" pointer-events="none" y="-5" font-size="10px" fill="#FFFFFF" font-family="sans-serif"> The</text><text text-anchor="middle" pointer-events="none" y="5" font-size="10px" fill="#FFFFFF" font-family="sans-serif"> Matrix</text><text text-anchor="middle" pointer-events="none" y="15" font-size="10px" fill="#FFFFFF" font-family="sans-serif"> Revol…</text></g><g class="node" transform="translate(73.19043358532494,173.79109302083285)"><circle class="outline" cx="0" cy="0" r="25" fill="#F79767" stroke="#f36924" stroke-width="2px"/><text text-anchor="middle" pointer-events="none" font-family="sans-serif" dy="1.5625" font-size="25" fill="#FFFFFF"/><text text-anchor="middle" pointer-events="none" font-family="sans-serif" dy="1.5625" font-size="25" fill="#FFFFFF"/><text text-anchor="middle" pointer-events="none" y="0" font-size="10px" fill="#FFFFFF" font-family="sans-serif"> Hugo</text><text text-anchor="middle" pointer-events="none" y="10" font-size="10px" fill="#FFFFFF" font-family="sans-serif"> Weaving</text></g><g class="node" transform="translate(162.85541769075297,52.9872905485496)"><circle class="outline" cx="0" cy="0" r="25" fill="#F79767" stroke="#f36924" stroke-width="2px"/><text text-anchor="middle" pointer-events="none" font-family="sans-serif" dy="1.5625" font-size="25" fill="#FFFFFF"/><text text-anchor="middle" pointer-events="none" font-family="sans-serif" dy="1.5625" font-size="25" fill="#FFFFFF"/><text text-anchor="middle" pointer-events="none" y="0" font-size="10px" fill="#FFFFFF" font-family="sans-serif"> Keanu</text><text text-anchor="middle" pointer-events="none" y="10" font-size="10px" fill="#FFFFFF" font-family="sans-serif"> Reeves</text></g><g class="node" transform="translate(71.2300954962071,41.34517146413082)"><circle class="outline" cx="0" cy="0" r="25" fill="#57C7E3" stroke="#23b3d7" stroke-width="2px"/><text text-anchor="middle" pointer-events="none" font-family="sans-serif" dy="1.5625" font-size="25" fill="#FFFFFF"/><text text-anchor="middle" pointer-events="none" font-family="sans-serif" dy="1.5625" font-size="25" fill="#FFFFFF"/><text text-anchor="middle" pointer-events="none" font-family="sans-serif" dy="1.5625" font-size="25" fill="#FFFFFF"/><text text-anchor="middle" pointer-events="none" y="-5" font-size="10px" fill="#FFFFFF" font-family="sans-serif"> The</text><text text-anchor="middle" pointer-events="none" y="5" font-size="10px" fill="#FFFFFF" font-family="sans-serif"> Matrix</text><text text-anchor="middle" pointer-events="none" y="15" font-size="10px" fill="#FFFFFF" font-family="sans-serif"> Reloa…</text></g><g class="node" transform="translate(35.28444403506663,89.2298971194314)"><circle class="outline" cx="0" cy="0" r="25" fill="#57C7E3" stroke="#23b3d7" stroke-width="2px"/><text text-anchor="middle" pointer-events="none" font-family="sans-serif" dy="1.5625" font-size="25" fill="#FFFFFF"/><text text-anchor="middle" pointer-events="none" font-family="sans-serif" dy="1.5625" font-size="25" fill="#FFFFFF"/><text text-anchor="middle" pointer-events="none" y="0" font-size="10px" fill="#FFFFFF" font-family="sans-serif"> The</text><text text-anchor="middle" pointer-events="none" y="10" font-size="10px" fill="#FFFFFF" font-family="sans-serif"> Matrix</text></g></g></svg>